<svg xmlns="http://www.w3.org/2000/svg" width="24" height="24" fill="none" viewBox="0 0 24 24"><path fill="#fff" d="M13.3333 7.99996C13.3333 7.26355 12.7363 6.66663 12 6.66663C11.2636 6.66663 10.6666 7.26355 10.6666 7.99996V10.6666H7.99996C7.26363 10.6666 6.66663 11.2635 6.66663 12C6.66663 12.7364 7.26363 13.3333 7.99996 13.3333H10.6666V16C10.6666 16.7364 11.2636 17.3333 12 17.3333C12.7363 17.3333 13.3333 16.7364 13.3333 16V13.3333H16C16.7363 13.3333 17.3333 12.7364 17.3333 12C17.3333 11.2635 16.7363 10.6666 16 10.6666H13.3333V7.99996Z"/></svg>