<svg xmlns="http://www.w3.org/2000/svg" width="24" height="24" fill="none" viewBox="0 0 24 24"><path fill="#fff" fill-rule="evenodd" d="M20 12C20 16.4183 16.4183 20 12 20C7.58172 20 4 16.4183 4 12C4 7.58172 7.58172 4 12 4C16.4183 4 20 7.58172 20 12ZM7.99291 15.5355C7.60239 15.145 7.60239 14.5118 7.99291 14.1213L10.1143 11.9999L7.99304 9.8787C7.60251 9.48817 7.60251 8.85501 7.99304 8.46448L8.46444 7.99308C8.85497 7.60255 9.48813 7.60255 9.87866 7.99308L11.9999 10.1143L14.1212 7.99306C14.5117 7.60253 15.1449 7.60253 15.5354 7.99305L16.0068 8.46446C16.3973 8.85498 16.3973 9.48815 16.0068 9.87867L13.8855 11.9999L16.0069 14.1213C16.3974 14.5119 16.3974 15.145 16.0069 15.5355L15.5355 16.007C15.145 16.3975 14.5118 16.3975 14.1213 16.007L11.9999 13.8856L9.87853 16.0069C9.48801 16.3975 8.85484 16.3975 8.46432 16.0069L7.99291 15.5355Z" clip-rule="evenodd"/></svg>