<svg width="210" height="173" viewBox="0 0 210 173" fill="none" xmlns="http://www.w3.org/2000/svg">
<g filter="url(#filter0_d)">
<rect x="32" y="24" width="146" height="109" fill="#66CC00"/>
</g>
<path d="M68.4928 85.096C66.0608 83.944 63.7568 83.496 61.2608 83.496C57.3568 83.496 53.5808 84.52 50.3808 87.528C47.6927 90.088 45.6448 93.928 45.6448 98.792C45.6448 103.976 47.9488 107.56 50.1248 109.672C52.7488 112.232 56.3968 113.96 61.1968 113.96C63.7568 113.96 66.0608 113.576 68.4928 112.232V103.912C66.3808 105.704 64.2048 106.152 62.6048 106.152C60.5568 106.152 58.4448 105.384 57.0368 103.848C55.8848 102.632 55.1168 100.84 55.1168 98.728C55.1168 96.424 56.0128 94.568 57.2288 93.352C57.8688 92.712 59.5968 91.304 62.4768 91.304C63.9488 91.304 66.2528 91.624 68.4928 93.48V85.096ZM106.743 98.728C106.743 95.08 105.335 90.984 102.455 88.104C99.8953 85.544 95.5433 83.496 89.9753 83.496C84.4073 83.496 80.0553 85.544 77.4953 88.104C74.6153 90.984 73.2073 95.08 73.2073 98.728C73.2073 102.376 74.6153 106.472 77.4953 109.352C80.0553 111.912 84.4073 113.96 89.9753 113.96C95.5433 113.96 99.8953 111.912 102.455 109.352C105.335 106.472 106.743 102.376 106.743 98.728ZM89.9753 91.304C92.0873 91.304 93.8153 92.008 95.1593 93.352C96.5033 94.696 97.2713 96.424 97.2713 98.728C97.2713 101.032 96.5033 102.76 95.1593 104.104C93.8153 105.448 92.0873 106.152 90.0393 106.152C87.6073 106.152 85.9433 105.256 84.7913 104.104C83.7033 103.016 82.6793 101.352 82.6793 98.728C82.6793 96.424 83.4473 94.696 84.7913 93.352C86.1353 92.008 87.8633 91.304 89.9753 91.304ZM112.49 113H121.706V101.416C121.706 98.984 121.898 95.912 123.946 93.736C125.098 92.52 126.57 91.816 128.554 91.816C130.154 91.816 131.498 92.2 132.714 92.84L133.226 84.2C132.202 83.88 131.37 83.752 130.218 83.752C128.426 83.752 126.826 84.008 125.29 84.968C123.818 85.864 122.538 87.336 121.706 88.936V84.456H112.49V113ZM144.371 94.824C144.627 93.544 145.267 92.52 145.971 91.752C146.867 90.856 148.275 89.896 150.643 89.896C152.499 89.896 153.971 90.536 154.995 91.496C156.339 92.776 156.787 94.568 156.851 94.824H144.371ZM165.363 99.368C165.363 95.848 164.723 91.368 161.331 87.784C157.811 84.072 153.203 83.496 150.003 83.496C146.803 83.496 142.515 84.136 139.059 87.592C136.179 90.536 134.707 94.76 134.707 98.856C134.707 103.592 136.499 107.368 138.995 109.864C142.323 113.192 146.099 113.96 150.387 113.96C153.587 113.96 156.659 113.512 159.411 111.848C161.075 110.824 163.635 108.712 164.915 104.68L156.211 103.784C155.443 105.384 154.355 106.088 154.227 106.152C153.267 106.728 151.859 106.984 150.515 106.984C149.107 106.984 147.187 106.728 145.779 105.192C144.627 103.912 144.051 101.864 144.051 100.328H165.363V99.368Z" fill="white"/>
<defs>
<filter id="filter0_d" x="0" y="0" width="210" height="173" filterUnits="userSpaceOnUse" color-interpolation-filters="sRGB">
<feFlood flood-opacity="0" result="BackgroundImageFix"/>
<feColorMatrix in="SourceAlpha" type="matrix" values="0 0 0 0 0 0 0 0 0 0 0 0 0 0 0 0 0 0 127 0"/>
<feOffset dy="8"/>
<feGaussianBlur stdDeviation="16"/>
<feColorMatrix type="matrix" values="0 0 0 0 0.4 0 0 0 0 0.8 0 0 0 0 0 0 0 0 0.5 0"/>
<feBlend mode="normal" in2="BackgroundImageFix" result="effect1_dropShadow"/>
<feBlend mode="normal" in="SourceGraphic" in2="effect1_dropShadow" result="shape"/>
</filter>
</defs>
</svg>
