<svg width="769" height="211" viewBox="0 0 769 211" fill="none" xmlns="http://www.w3.org/2000/svg">
<g filter="url(#filter0_d)">
<rect x="32" y="52" width="146" height="109" fill="#0066CC"/>
</g>
<path d="M67.8603 113.928C65.5563 112.584 62.6123 111.496 58.3883 111.496C55.7643 111.496 52.3083 112.008 49.7483 114.376C48.0843 115.912 46.9963 118.216 46.9963 120.968C46.9963 123.144 47.7003 124.744 49.0443 126.152C50.2603 127.368 51.9883 128.264 53.6523 128.776L55.9563 129.48C57.3003 129.864 58.1323 130.12 58.7723 130.504C59.6042 131.016 59.7963 131.656 59.7963 132.168C59.7963 132.872 59.4123 133.576 58.8363 134.024C58.0043 134.664 56.5323 134.664 55.9563 134.664C54.7403 134.664 53.3963 134.408 52.1163 133.768C51.1562 133.32 49.8763 132.424 48.9803 131.656L45.0763 137.864C48.7883 141.128 52.9483 141.96 56.7883 141.96C59.7963 141.96 63.2523 141.512 66.0683 138.696C67.3483 137.416 69.0123 134.984 69.0123 131.208C69.0123 129.032 68.4363 127.304 66.7723 125.768C65.3003 124.424 63.6363 123.784 62.0363 123.272L59.6042 122.504C58.4523 122.12 57.4923 121.928 56.8523 121.544C56.4043 121.288 55.9563 120.904 55.9563 120.264C55.9563 119.816 56.2123 119.304 56.5323 118.984C57.1083 118.408 58.1963 118.152 59.1562 118.152C60.9483 118.152 62.8043 118.92 64.2123 119.752L67.8603 113.928ZM74.7463 94.344V141H83.9623V128.712L94.9703 141H107.386L92.8583 125.384L106.426 112.456H94.3303L83.9623 122.952V94.344H74.7463ZM111.38 112.456V141H120.596V112.456H111.38ZM110.612 100.296C110.612 103.304 112.98 105.672 115.988 105.672C118.996 105.672 121.364 103.304 121.364 100.296C121.364 97.288 118.996 94.92 115.988 94.92C112.98 94.92 110.612 97.288 110.612 100.296ZM145.708 119.88V112.456H138.412V107.656C138.412 106.312 138.412 104.072 139.436 102.728C139.82 102.216 140.716 101.576 142.124 101.576C143.276 101.576 144.62 102.024 145.644 102.664V94.6C144.108 94.024 142.444 93.64 140.396 93.64C136.876 93.64 134.252 94.92 132.396 96.904C129.516 99.976 129.196 103.624 129.196 106.824V112.456H125.868V119.88H129.196V141H138.412V119.88H145.708ZM166.471 119.88V112.456H160.775V103.24H151.559V112.456H148.359V119.88H151.559V141H160.775V119.88H166.471Z" fill="white"/>
<path d="M256.584 49.152C234.772 49.152 221.16 57.844 213.78 65.224C203.94 75.064 196.888 90.972 196.888 106.716C196.888 122.788 203.448 137.548 213.944 147.388C222.144 155.26 236.084 163.46 256.584 163.46C274.952 163.46 288.728 157.228 298.896 147.388C310.704 135.908 315.952 120.984 315.952 106.388C315.952 89.496 309.228 75.064 298.896 65.06C287.908 54.4 273.64 49.152 256.584 49.152ZM256.42 72.44C266.424 72.44 275.116 76.54 280.528 81.788C285.448 86.708 290.04 95.072 290.04 106.388C290.04 119.016 284.792 126.724 280.528 130.824C275.28 136.072 267.408 140.172 256.256 140.172C247.728 140.172 239.856 137.876 232.804 131.152C226.08 124.592 222.8 116.556 222.8 106.552C222.8 94.416 227.72 86.38 232.476 81.788C238.38 75.884 246.908 72.44 256.42 72.44ZM402.474 59.976C389.682 50.464 377.546 49.152 370.002 49.152C359.834 49.152 350.65 51.284 342.942 59.156C336.382 65.88 333.43 74.08 333.43 83.756C333.43 89.004 334.25 96.712 339.99 102.78C344.254 107.372 350.158 109.668 355.242 111.472L364.262 114.588C367.378 115.736 374.102 118.196 377.054 120.656C379.35 122.624 380.826 124.92 380.826 128.528C380.826 132.628 379.022 135.58 376.89 137.384C373.282 140.5 368.69 141.156 365.41 141.156C360.326 141.156 355.898 139.844 351.634 137.22C348.682 135.416 344.254 131.644 341.466 128.856L328.346 146.896C332.446 150.996 338.842 156.08 344.418 158.868C351.306 162.312 358.194 163.46 366.066 163.46C373.282 163.46 387.386 162.476 397.062 152.308C402.802 146.404 406.738 136.564 406.738 125.248C406.738 118.852 405.098 110.98 398.702 104.912C394.438 100.812 388.534 98.352 383.778 96.548L375.578 93.432C368.198 90.644 364.426 89.66 361.802 87.2C360.162 85.724 359.342 83.756 359.342 81.132C359.342 78.344 360.49 75.884 362.13 74.244C365.082 70.964 369.346 70.472 372.79 70.472C375.906 70.472 382.958 70.964 391.158 78.344L402.474 59.976Z" fill="black"/>
<defs>
<filter id="filter0_d" x="0" y="28" width="210" height="173" filterUnits="userSpaceOnUse" color-interpolation-filters="sRGB">
<feFlood flood-opacity="0" result="BackgroundImageFix"/>
<feColorMatrix in="SourceAlpha" type="matrix" values="0 0 0 0 0 0 0 0 0 0 0 0 0 0 0 0 0 0 127 0"/>
<feOffset dy="8"/>
<feGaussianBlur stdDeviation="16"/>
<feColorMatrix type="matrix" values="0 0 0 0 0 0 0 0 0 0.4 0 0 0 0 0.8 0 0 0 0.5 0"/>
<feBlend mode="normal" in2="BackgroundImageFix" result="effect1_dropShadow"/>
<feBlend mode="normal" in="SourceGraphic" in2="effect1_dropShadow" result="shape"/>
</filter>
</defs>
</svg>
