<svg width="140" height="140" viewBox="0 0 140 140" fill="none" xmlns="http://www.w3.org/2000/svg">
    <path d="M90 10V130M10 10H130V130H10V10ZM10 50H130H10ZM10 90H130H10ZM50 10V130V10Z" stroke="RGB(24 24 27)"
        stroke-width="2" />
    <path
        d="M70 46C78.8366 46 86 38.8366 86 30C86 21.1634 78.8366 14 70 14C61.1634 14 54 21.1634 54 30C54 38.8366 61.1634 46 70 46Z"
        fill="RGB(24 24 27)" />
    <path
        d="M110 86C118.837 86 126 78.8366 126 70C126 61.1634 118.837 54 110 54C101.163 54 94 61.1634 94 70C94 78.8366 101.163 86 110 86Z"
        fill="RGB(24 24 27)" />
    <path
        d="M30 126C38.8366 126 46 118.837 46 110C46 101.163 38.8366 94 30 94C21.1634 94 14 101.163 14 110C14 118.837 21.1634 126 30 126Z"
        fill="RGB(24 24 27)" />
    <path
        d="M70 126C78.8366 126 86 118.837 86 110C86 101.163 78.8366 94 70 94C61.1634 94 54 101.163 54 110C54 118.837 61.1634 126 70 126Z"
        fill="RGB(24 24 27)" />
    <path
        d="M110 126C118.837 126 126 118.837 126 110C126 101.163 118.837 94 110 94C101.163 94 94 101.163 94 110C94 118.837 101.163 126 110 126Z"
        fill="RGB(24 24 27)" />
</svg>
