<svg width="380" height="178" viewBox="0 0 380 178" fill="none" xmlns="http://www.w3.org/2000/svg">
<rect x="226" y="24" width="130" height="130" rx="10.3908" fill="#D9D9D9"/>
<rect x="226" y="24" width="130" height="130" rx="10.3908" fill="url(#paint0_linear_673_5)"/>
<rect x="227" y="25" width="128" height="128" rx="9.3908" stroke="white" stroke-opacity="0.25" stroke-width="2"/>
<path d="M28.8493 119.5V59.0445H45.2621V82.6599H66.9883V59.0445H83.401V119.5H66.9883V95.8846H45.2621V119.5H28.8493ZM91.4303 119.5V74.1583H107.725V119.5H91.4303ZM99.5776 69.4353C97.3735 69.4353 95.4842 68.7071 93.9099 67.2508C92.3355 65.7945 91.5483 64.0431 91.5483 61.9964C91.5483 59.9497 92.3355 58.1982 93.9099 56.742C95.4842 55.2857 97.3735 54.5575 99.5776 54.5575C101.801 54.5575 103.691 55.2857 105.245 56.742C106.82 58.1982 107.607 59.9497 107.607 61.9964C107.607 64.0431 106.82 65.7945 105.245 67.2508C103.691 68.7071 101.801 69.4353 99.5776 69.4353ZM132.44 120.09C129.213 120.09 126.241 119.244 123.525 117.552C120.829 115.859 118.664 113.291 117.031 109.847C115.417 106.403 114.61 102.064 114.61 96.8292C114.61 91.3583 115.457 86.9107 117.149 83.4864C118.861 80.0622 121.065 77.5531 123.761 75.959C126.477 74.365 129.331 73.568 132.322 73.568C134.565 73.568 136.533 73.9615 138.226 74.7487C139.918 75.5162 141.335 76.5494 142.477 77.8483C143.618 79.1274 144.484 80.5345 145.074 82.0695H145.31V59.0445H161.605V119.5H145.428V112.061H145.074C144.444 113.596 143.539 114.974 142.358 116.194C141.197 117.394 139.78 118.349 138.108 119.057C136.455 119.746 134.565 120.09 132.44 120.09ZM138.462 107.574C139.958 107.574 141.237 107.141 142.299 106.275C143.382 105.39 144.208 104.15 144.779 102.556C145.369 100.942 145.665 99.0333 145.665 96.8292C145.665 94.5857 145.369 92.6669 144.779 91.0729C144.208 89.4592 143.382 88.2292 142.299 87.383C141.237 86.5171 139.958 86.0841 138.462 86.0841C136.966 86.0841 135.687 86.5171 134.624 87.383C133.581 88.2292 132.775 89.4592 132.204 91.0729C131.653 92.6669 131.377 94.5857 131.377 96.8292C131.377 99.0726 131.653 101.001 132.204 102.615C132.775 104.209 133.581 105.439 134.624 106.305C135.687 107.151 136.966 107.574 138.462 107.574ZM191.331 120.327C186.49 120.327 182.318 119.402 178.815 117.552C175.332 115.682 172.645 113.006 170.756 109.522C168.886 106.02 167.952 101.828 167.952 96.9473C167.952 92.2635 168.896 88.1702 170.786 84.6672C172.675 81.1643 175.341 78.4386 178.785 76.4904C182.229 74.5421 186.293 73.568 190.977 73.568C194.401 73.568 197.501 74.0993 200.275 75.162C203.05 76.2247 205.422 77.7695 207.389 79.7965C209.357 81.8038 210.873 84.2441 211.935 87.1173C212.998 89.9905 213.529 93.2278 213.529 96.8292V100.608H173.029V91.6338H198.534C198.514 90.3349 198.179 89.1935 197.53 88.2095C196.9 87.2059 196.044 86.4285 194.962 85.8775C193.899 85.3068 192.689 85.0214 191.331 85.0214C190.012 85.0214 188.802 85.3068 187.7 85.8775C186.598 86.4285 185.712 87.196 185.043 88.18C184.394 89.164 184.05 90.3152 184.01 91.6338V101.316C184.01 102.772 184.315 104.071 184.925 105.213C185.535 106.354 186.411 107.249 187.553 107.899C188.694 108.548 190.071 108.873 191.685 108.873C192.807 108.873 193.83 108.716 194.755 108.401C195.7 108.086 196.507 107.633 197.176 107.043C197.845 106.433 198.337 105.705 198.652 104.858H213.529C213.018 108.007 211.808 110.743 209.899 113.065C207.99 115.367 205.461 117.158 202.312 118.437C199.183 119.697 195.523 120.327 191.331 120.327ZM242.023 120.327C237.103 120.327 232.892 119.352 229.389 117.404C225.886 115.436 223.2 112.701 221.33 109.198C219.46 105.675 218.526 101.592 218.526 96.9473C218.526 92.3029 219.46 88.2292 221.33 84.7263C223.2 81.2036 225.886 78.4682 229.389 76.5199C232.892 74.5519 237.103 73.568 242.023 73.568C246.943 73.568 251.154 74.5519 254.657 76.5199C258.16 78.4682 260.846 81.2036 262.716 84.7263C264.586 88.2292 265.52 92.3029 265.52 96.9473C265.52 101.592 264.586 105.675 262.716 109.198C260.846 112.701 258.16 115.436 254.657 117.404C251.154 119.352 246.943 120.327 242.023 120.327ZM242.141 108.283C243.519 108.283 244.709 107.82 245.713 106.895C246.717 105.97 247.494 104.652 248.045 102.94C248.596 101.228 248.871 99.1907 248.871 96.8292C248.871 94.4479 248.596 92.4111 248.045 90.7187C247.494 89.0066 246.717 87.688 245.713 86.7631C244.709 85.8382 243.519 85.3757 242.141 85.3757C240.685 85.3757 239.435 85.8382 238.392 86.7631C237.349 87.688 236.552 89.0066 236.001 90.7187C235.45 92.4111 235.175 94.4479 235.175 96.8292C235.175 99.1907 235.45 101.228 236.001 102.94C236.552 104.652 237.349 105.97 238.392 106.895C239.435 107.82 240.685 108.283 242.141 108.283Z" fill="white"/>
<defs>
<linearGradient id="paint0_linear_673_5" x1="291" y1="24" x2="291" y2="154" gradientUnits="userSpaceOnUse">
<stop stop-color="#FF6600"/>
<stop offset="1" stop-color="#FF0066"/>
</linearGradient>
</defs>
</svg>
