<svg width="359" height="178" viewBox="0 0 359 178" fill="none" xmlns="http://www.w3.org/2000/svg">
    <path
        d="M262.787 26.9875C266.771 23.0041 273.229 23.0042 277.213 26.9875L332.012 81.7874C335.996 85.7708 335.996 92.2292 332.012 96.2126L277.213 151.012C273.229 154.996 266.771 154.996 262.787 151.012L207.988 96.2126C204.004 92.2292 204.004 85.7708 207.988 81.7874L262.787 26.9875Z"
        fill="#D9D9D9" />
    <path
        d="M262.787 26.9875C266.771 23.0041 273.229 23.0042 277.213 26.9875L332.012 81.7874C335.996 85.7708 335.996 92.2292 332.012 96.2126L277.213 151.012C273.229 154.996 266.771 154.996 262.787 151.012L207.988 96.2126C204.004 92.2292 204.004 85.7708 207.988 81.7874L262.787 26.9875Z"
        fill="url(#paint0_linear_462_107)" />
    <path
        d="M263.495 27.6947C267.087 24.1018 272.913 24.1018 276.505 27.6947L331.305 82.4945C334.898 86.0874 334.898 91.9126 331.305 95.5055L276.505 150.305C272.913 153.898 267.087 153.898 263.495 150.305L208.695 95.5055C205.102 91.9126 205.102 86.0874 208.695 82.4945L263.495 27.6947Z"
        stroke="white" stroke-opacity="0.25" stroke-width="2" />
    <path
        d="M28.1439 119.5V59.0445H44.5566V83.4864H45.3831L63.567 59.0445H82.6955L62.2682 85.9661L83.1678 119.5H63.567L49.9881 96.8292L44.5566 103.914V119.5H28.1439ZM100.437 120.208C97.5438 120.208 94.9854 119.736 92.7616 118.792C90.5575 117.827 88.8257 116.371 87.5662 114.423C86.3067 112.474 85.677 109.995 85.677 106.984C85.677 104.504 86.1001 102.389 86.9463 100.637C87.7925 98.866 88.9733 97.4196 90.4886 96.2978C92.004 95.1761 93.7653 94.32 95.7726 93.7296C97.7996 93.1393 99.984 92.7555 102.326 92.5784C104.865 92.3816 106.901 92.1454 108.436 91.8699C109.991 91.5747 111.113 91.1713 111.802 90.6596C112.49 90.1283 112.835 89.4297 112.835 88.5638V88.4457C112.835 87.2649 112.382 86.3597 111.477 85.7299C110.572 85.1002 109.411 84.7853 107.994 84.7853C106.439 84.7853 105.17 85.1297 104.186 85.8185C103.221 86.4876 102.641 87.5208 102.444 88.918H87.4481C87.6449 86.1629 88.5207 83.6242 90.0754 81.302C91.6497 78.9602 93.9424 77.0906 96.9534 75.6934C99.9643 74.2764 103.723 73.568 108.23 73.568C111.477 73.568 114.389 73.9517 116.967 74.7192C119.545 75.467 121.74 76.5199 123.55 77.8778C125.361 79.216 126.738 80.7903 127.683 82.6009C128.647 84.3917 129.129 86.34 129.129 88.4457V119.5H113.897V113.124H113.543C112.638 114.816 111.536 116.184 110.237 117.227C108.958 118.27 107.492 119.028 105.839 119.5C104.205 119.972 102.405 120.208 100.437 120.208ZM105.75 109.936C106.99 109.936 108.151 109.68 109.233 109.168C110.335 108.657 111.231 107.919 111.92 106.954C112.608 105.99 112.953 104.819 112.953 103.441V99.663C112.52 99.8401 112.057 100.007 111.565 100.165C111.093 100.322 110.581 100.47 110.03 100.608C109.499 100.745 108.928 100.873 108.318 100.991C107.728 101.109 107.108 101.218 106.459 101.316C105.199 101.513 104.166 101.838 103.359 102.29C102.572 102.723 101.981 103.264 101.588 103.914C101.214 104.544 101.027 105.252 101.027 106.039C101.027 107.299 101.47 108.263 102.355 108.932C103.241 109.601 104.373 109.936 105.75 109.936ZM136.915 119.5V74.1583H152.737V82.778H153.21C154.036 79.5899 155.345 77.2579 157.136 75.7819C158.946 74.3059 161.062 73.568 163.483 73.568C164.191 73.568 164.89 73.627 165.578 73.7451C166.287 73.8435 166.966 73.9911 167.615 74.1879V88.0915C166.808 87.8159 165.815 87.6093 164.634 87.4716C163.453 87.3338 162.439 87.2649 161.593 87.2649C159.999 87.2649 158.563 87.629 157.283 88.3571C156.024 89.0656 155.03 90.0693 154.302 91.3681C153.574 92.6473 153.21 94.1528 153.21 95.8846V119.5H136.915ZM172.958 119.5V74.1583H188.426V82.778H188.899C189.843 79.9441 191.457 77.7007 193.74 76.0476C196.023 74.3945 198.738 73.568 201.887 73.568C205.075 73.568 207.821 74.4142 210.123 76.1066C212.426 77.7794 213.813 80.0032 214.285 82.778H214.758C215.525 80.0032 217.158 77.7794 219.658 76.1066C222.157 74.4142 225.089 73.568 228.454 73.568C232.804 73.568 236.326 74.9652 239.022 77.7597C241.738 80.5542 243.096 84.2736 243.096 88.918V119.5H226.801V93.0507C226.801 91.0631 226.3 89.5084 225.296 88.3867C224.292 87.2452 222.944 86.6745 221.252 86.6745C219.579 86.6745 218.251 87.2452 217.267 88.3867C216.302 89.5084 215.82 91.0631 215.82 93.0507V119.5H200.234V93.0507C200.234 91.0631 199.732 89.5084 198.729 88.3867C197.725 87.2452 196.377 86.6745 194.684 86.6745C193.563 86.6745 192.598 86.9304 191.792 87.442C190.985 87.9537 190.355 88.6917 189.902 89.656C189.469 90.6006 189.253 91.7322 189.253 93.0507V119.5H172.958Z"
        fill="white" />
    <defs>
        <linearGradient id="paint0_linear_462_107" x1="304.613" y1="54.3875" x2="235.387" y2="123.613"
            gradientUnits="userSpaceOnUse">
            <stop stop-color="#FF0066" />
            <stop offset="1" stop-color="#3E007B" />
        </linearGradient>
    </defs>
</svg>
