<svg width="840" height="320" viewBox="0 0 840 320" fill="none" xmlns="http://www.w3.org/2000/svg">
<g clip-path="url(#clip0_1402_22)">
<rect width="840" height="320" rx="8" fill="white"/>
<path d="M916.782 135.226C937.054 171.062 954.994 208.168 970.49 246.313C971.035 247.653 971.564 249.001 972.108 250.34L637.033 441.308C635.341 440.643 633.656 439.953 631.992 439.232C626.464 436.857 621.062 434.251 615.815 431.358C590.566 417.405 570.198 395.761 566.134 375.06L566.085 374.73C565.177 370.208 565.171 365.551 566.068 361.026C570.792 338.059 599.525 324.844 631.347 322.807C595.125 311.332 559.752 290.884 542.613 264.299C525.888 238.372 528.839 211.249 534.625 186.306C534.813 185.484 535.009 184.676 535.205 183.869C535.291 183.462 535.401 183.062 535.487 182.655C540.17 163.488 546.914 143.366 567.696 133.331C590.491 122.327 625.297 126.64 654.607 138.159C683.908 149.664 709.182 167.36 734.273 184.384C759.371 201.386 785.755 218.448 815.803 228.017C772.705 210.899 731.929 186.655 704.385 156.081C676.841 125.507 664.042 88.2598 676.765 59.0255C680.716 50.3039 686.699 42.6549 694.212 36.7186C695.078 36.0065 695.977 35.3155 696.899 34.6309C716.101 20.4274 744.742 13.3662 775.427 18.2984C809.218 23.7265 841.166 42.2493 864.294 63.9906C887.421 85.7324 902.895 110.583 916.782 135.226Z" fill="#F2F2F2"/>
<path d="M761.26 370.508L754.853 374.159C752.093 374.063 749.332 373.986 746.571 373.93C744.842 373.862 743.115 373.833 741.379 373.788C712.727 373.084 684.246 372.985 655.938 373.489C627.644 373.972 599.558 375.065 571.68 376.769C570.962 376.85 570.239 376.678 569.635 376.281C569.031 375.884 568.585 375.289 568.375 374.598C568.352 374.504 568.345 374.408 568.352 374.312C568.327 373.572 568.866 372.946 570.13 372.862C573.554 372.66 576.992 372.449 580.433 372.277C608.476 370.725 636.742 369.774 665.232 369.424C693.704 369.079 722.361 369.336 751.202 370.197C751.806 370.211 752.419 370.239 753.023 370.253C755.774 370.335 758.509 370.426 761.26 370.508Z" fill="white"/>
<path d="M843.873 323.425L839.911 325.683C838.301 324.951 836.706 324.21 835.096 323.478C797.229 306.221 759.367 288.962 721.508 271.701C659.519 243.446 597.54 215.186 535.571 186.92C535.219 186.779 534.898 186.571 534.625 186.307C533.718 185.412 534.139 184.337 535.205 183.87C535.662 183.686 536.152 183.602 536.645 183.623C537.137 183.645 537.618 183.77 538.058 183.992C572.816 199.84 607.564 215.681 642.302 231.515C703.974 259.632 765.638 287.747 827.295 315.859C831.213 317.641 835.14 319.438 839.058 321.22C840.668 321.952 842.279 322.684 843.873 323.425Z" fill="white"/>
<path d="M918.62 249.7C922.26 256.471 925.6 263.273 928.77 270.092C929.375 271.397 929.98 272.702 930.584 274.008L926.427 276.377C925.838 275.063 925.248 273.749 924.643 272.444C920.108 262.567 915.257 252.73 909.721 242.946C894.248 215.891 876.067 190.478 855.459 167.097C833.343 141.879 809.072 118.635 782.923 97.6277C755.397 75.4404 726.138 55.493 695.426 37.9768C694.886 37.7139 694.457 37.269 694.213 36.7204C693.702 35.4411 695.072 34.1831 696.899 34.6326C697.259 34.72 697.605 34.8575 697.927 35.0409C701.736 37.2232 705.515 39.4353 709.265 41.6775C739.492 59.6693 768.235 80.0424 795.222 102.603C820.881 124.012 844.625 147.617 866.184 173.149C886.23 196.809 903.801 222.46 918.62 249.7V249.7Z" fill="white"/>
<path d="M-35.6856 6.96363C-71.16 27.8619 -105.249 51.0267 -137.742 76.3138C-138.883 77.2012 -140.016 78.1039 -141.157 78.992L53.5431 411.913C55.3411 412.183 57.145 412.428 58.9464 412.635C64.9216 413.343 70.9025 413.786 76.8932 413.905C105.736 414.446 134.198 405.885 148.067 389.99L148.275 389.729C151.322 386.266 153.656 382.236 155.142 377.869C162.533 355.617 144.258 329.806 117.717 312.131C154.825 320.304 195.682 320.282 223.818 305.829C251.265 291.738 262.271 266.772 269.732 242.279C269.981 241.473 270.215 240.675 270.448 239.878C270.577 239.482 270.682 239.081 270.811 238.686C276.338 219.745 280.559 198.947 267.579 179.865C253.34 158.938 221.041 145.27 189.898 140.591C158.77 135.904 128.035 138.592 97.7925 140.79C67.5569 142.965 36.1756 144.549 5.3695 137.812C51.2517 144.536 98.6876 143.929 137.828 131.223C176.969 118.517 206.677 92.6595 210.276 60.9804C211.214 51.4516 209.858 41.836 206.319 32.9382C205.925 31.8886 205.492 30.841 205.036 29.7869C195.508 7.88513 174.235 -12.5506 145.195 -23.6216C113.217 -35.8159 76.2878 -35.749 45.3881 -28.4843C14.4887 -21.2188 -11.3382 -7.43461 -35.6856 6.96363Z" fill="#F2F2F2"/>
<path d="M-18.6405 288.484L-14.9175 294.85C-12.4792 296.146 -10.0502 297.461 -7.63051 298.793C-6.09923 299.599 -4.58918 300.436 -3.06379 301.266C22.1021 314.982 46.8168 329.136 71.0803 343.727C95.3424 358.293 119.119 373.282 142.41 388.696C142.991 389.126 143.704 389.338 144.425 389.297C145.146 389.255 145.83 388.962 146.358 388.469C146.424 388.399 146.479 388.32 146.52 388.233C146.912 387.604 146.758 386.793 145.706 386.088C142.842 384.201 139.969 382.299 137.076 380.43C113.566 365.064 89.5618 350.107 65.0637 335.56C40.5794 321.025 15.633 306.919 -9.77544 293.244C-10.3052 292.954 -10.8502 292.672 -11.38 292.382C-13.803 291.078 -16.2175 289.788 -18.6405 288.484Z" fill="white"/>
<path d="M-66.6447 206.402L-64.3424 210.339C-62.582 210.51 -60.8304 210.666 -59.0698 210.837C-17.6478 214.826 23.7717 218.811 65.1886 222.791C133 229.316 200.806 235.832 268.605 242.337C268.981 242.391 269.363 242.371 269.732 242.279C270.964 241.958 271.137 240.817 270.448 239.879C270.144 239.491 269.761 239.173 269.324 238.945C268.888 238.718 268.407 238.586 267.916 238.559C229.89 234.904 191.877 231.248 153.877 227.592C86.4084 221.106 18.948 214.622 -48.5046 208.14C-52.7888 207.724 -57.0879 207.316 -61.3721 206.901C-63.1327 206.73 -64.8932 206.558 -66.6447 206.402Z" fill="white"/>
<path d="M-94.515 105.182C-101.053 109.225 -107.346 113.446 -113.501 117.767C-114.678 118.594 -115.854 119.422 -117.03 120.25L-114.615 124.381C-113.447 123.538 -112.28 122.695 -111.103 121.867C-102.237 115.581 -93.1174 109.487 -83.4308 103.782C-56.5034 88.0886 -28.052 75.1703 1.48603 65.2258C33.248 54.4447 65.8889 46.4499 99.0388 41.3318C133.97 35.8799 169.283 33.2345 204.639 33.4209C205.238 33.4632 205.832 33.2927 206.317 32.9394C207.399 32.0868 206.842 30.3123 205.035 29.7881C204.679 29.6837 204.311 29.6298 203.941 29.6278C199.551 29.6135 195.172 29.6397 190.803 29.7064C155.63 30.1743 120.551 33.4462 85.8992 39.4908C52.9734 45.202 20.6086 53.7722 -10.828 65.1042C-40.019 75.5713 -68.0608 89.0006 -94.515 105.182V105.182Z" fill="white"/>
<path d="M296 141.07C296 131.137 296 126.171 299.086 123.086C302.171 120 307.137 120 317.07 120H373.696C383.628 120 388.594 120 391.68 123.086C394.765 126.171 394.765 131.137 394.765 141.07V177.942C394.765 187.875 394.765 192.841 391.68 195.927C388.594 199.012 383.628 199.012 373.696 199.012H317.07C307.137 199.012 302.171 199.012 299.086 195.927C296 192.841 296 187.875 296 177.942V141.07Z" fill="#0066FF"/>
<path d="M320.826 168.019C319.309 167.134 317.37 166.417 314.589 166.417C312.861 166.417 310.586 166.754 308.9 168.314C307.805 169.325 307.088 170.842 307.088 172.654C307.088 174.087 307.552 175.14 308.437 176.067C309.237 176.868 310.375 177.458 311.471 177.795L312.988 178.259C313.873 178.511 314.421 178.68 314.842 178.933C315.39 179.27 315.516 179.691 315.516 180.028C315.516 180.492 315.263 180.955 314.884 181.25C314.336 181.672 313.367 181.672 312.988 181.672C312.187 181.672 311.302 181.503 310.459 181.082C309.827 180.787 308.984 180.197 308.395 179.691L305.824 183.779C308.268 185.928 311.007 186.476 313.536 186.476C315.516 186.476 317.792 186.181 319.646 184.327C320.489 183.484 321.584 181.883 321.584 179.396C321.584 177.964 321.205 176.826 320.109 175.814C319.14 174.929 318.045 174.508 316.991 174.171L315.39 173.665C314.631 173.412 313.999 173.286 313.578 173.033C313.283 172.865 312.988 172.612 312.988 172.19C312.988 171.895 313.156 171.558 313.367 171.348C313.746 170.968 314.463 170.8 315.095 170.8C316.275 170.8 317.497 171.305 318.424 171.853L320.826 168.019Z" fill="white"/>
<path d="M325.36 155.124V185.844H331.428V177.753L338.676 185.844H346.851L337.285 175.562L346.219 167.049H338.255L331.428 173.96V155.124H325.36Z" fill="white"/>
<path d="M349.481 167.049V185.844H355.549V167.049H349.481ZM348.975 159.043C348.975 161.023 350.534 162.582 352.515 162.582C354.496 162.582 356.055 161.023 356.055 159.043C356.055 157.062 354.496 155.503 352.515 155.503C350.534 155.503 348.975 157.062 348.975 159.043Z" fill="white"/>
<path d="M372.083 171.938V167.049H367.279V163.889C367.279 163.004 367.279 161.529 367.954 160.644C368.207 160.307 368.797 159.886 369.724 159.886C370.482 159.886 371.367 160.18 372.041 160.602V155.292C371.03 154.913 369.934 154.66 368.586 154.66C366.268 154.66 364.54 155.503 363.318 156.809C361.422 158.832 361.211 161.234 361.211 163.341V167.049H359.02V171.938H361.211V185.844H367.279V171.938H372.083Z" fill="white"/>
<path d="M385.755 171.938V167.049H382.004V160.981H375.936V167.049H373.829V171.938H375.936V185.844H382.004V171.938H385.755Z" fill="white"/>
<path d="M446.262 123.872C432.25 123.872 423.506 129.455 418.765 134.196C412.444 140.517 407.914 150.736 407.914 160.849C407.914 171.174 412.128 180.655 418.871 186.976C424.138 192.033 433.093 197.3 446.262 197.3C458.061 197.3 466.91 193.297 473.442 186.976C481.027 179.602 484.398 170.015 484.398 160.639C484.398 149.788 480.079 140.517 473.442 134.091C466.383 127.243 457.218 123.872 446.262 123.872ZM446.156 138.831C452.583 138.831 458.166 141.465 461.643 144.836C464.803 147.997 467.753 153.37 467.753 160.639C467.753 168.751 464.382 173.702 461.643 176.336C458.272 179.707 453.215 182.341 446.051 182.341C440.573 182.341 435.516 180.866 430.986 176.546C426.667 172.332 424.56 167.17 424.56 160.744C424.56 152.948 427.72 147.786 430.775 144.836C434.568 141.044 440.046 138.831 446.156 138.831Z" fill="black"/>
<path d="M539.978 130.825C531.76 124.714 523.965 123.872 519.118 123.872C512.587 123.872 506.687 125.241 501.736 130.298C497.522 134.617 495.625 139.885 495.625 146.1C495.625 149.472 496.152 154.423 499.839 158.321C502.579 161.271 506.371 162.746 509.637 163.904L515.431 165.906C517.433 166.644 521.752 168.224 523.649 169.804C525.123 171.068 526.072 172.543 526.072 174.861C526.072 177.495 524.913 179.391 523.543 180.55C521.225 182.551 518.276 182.973 516.169 182.973C512.903 182.973 510.058 182.13 507.319 180.444C505.423 179.286 502.579 176.863 500.788 175.072L492.36 186.66C494.993 189.294 499.102 192.56 502.684 194.351C507.109 196.563 511.533 197.3 516.59 197.3C521.225 197.3 530.286 196.668 536.501 190.137C540.188 186.344 542.717 180.023 542.717 172.754C542.717 168.645 541.663 163.588 537.555 159.691C534.816 157.057 531.023 155.477 527.968 154.318L522.7 152.316C517.96 150.525 515.537 149.893 513.851 148.313C512.797 147.365 512.271 146.1 512.271 144.415C512.271 142.624 513.008 141.044 514.062 139.99C515.958 137.883 518.697 137.567 520.909 137.567C522.911 137.567 527.441 137.883 532.709 142.624L539.978 130.825Z" fill="black"/>
<path d="M209.104 299.999C210.063 299.382 210.875 298.562 211.483 297.596C212.091 296.631 212.48 295.545 212.623 294.413C212.766 293.281 212.659 292.132 212.309 291.046C211.96 289.96 211.377 288.964 210.601 288.128L216.463 204.917L199.578 206.555L199.114 288.043C197.796 289.44 197.036 291.272 196.978 293.192C196.92 295.111 197.569 296.986 198.8 298.459C200.031 299.933 201.76 300.904 203.659 301.187C205.559 301.471 207.496 301.048 209.104 299.999H209.104Z" fill="#FFB8B8"/>
<path d="M241.685 384.999C240.886 384.996 240.116 384.702 239.518 384.172C238.921 383.641 238.537 382.911 238.44 382.118L233.265 338.825C233.192 338.215 232.901 337.653 232.446 337.241C231.991 336.829 231.402 336.596 230.788 336.585C230.175 336.573 229.578 336.785 229.107 337.179C228.637 337.574 228.326 338.126 228.231 338.732L221.712 380.184C221.594 380.955 221.203 381.657 220.61 382.164C220.018 382.671 219.263 382.948 218.484 382.945H207.918C207.487 382.945 207.06 382.859 206.662 382.693C206.264 382.528 205.902 382.285 205.599 381.978C205.295 381.672 205.055 381.309 204.892 380.91C204.729 380.51 204.647 380.082 204.65 379.651L209.693 287.741C209.695 286.959 209.979 286.203 210.493 285.613C211.007 285.024 211.717 284.639 212.491 284.531L251.7 278.837C252.166 278.77 252.64 278.804 253.092 278.937C253.544 279.07 253.961 279.299 254.316 279.608C254.671 279.918 254.955 280.3 255.148 280.729C255.342 281.159 255.44 281.625 255.437 282.095L254.753 381.285C254.747 382.121 254.421 382.923 253.842 383.526C253.263 384.129 252.475 384.488 251.641 384.527L241.84 384.995C241.788 384.997 241.736 384.999 241.685 384.999Z" fill="#2F2E41"/>
<path d="M221.358 291.213C217.586 291.199 213.846 290.533 210.301 289.244C209.7 289.023 209.178 288.629 208.801 288.111C208.424 287.593 208.209 286.975 208.182 286.335C207.844 278.827 205.865 240.179 200.104 216.605C198.984 211.981 199.258 207.128 200.891 202.659C202.524 198.19 205.443 194.304 209.28 191.492C209.59 191.269 209.906 191.051 210.228 190.836C213.56 188.617 217.404 187.288 221.395 186.975C225.385 186.663 229.389 187.376 233.026 189.049C236.783 190.73 240.048 193.346 242.509 196.646C244.97 199.946 246.547 203.821 247.087 207.903L256.482 277.671C256.543 278.107 256.514 278.551 256.398 278.975C256.281 279.4 256.08 279.797 255.806 280.141C255.538 280.484 255.203 280.768 254.822 280.977C254.441 281.185 254.021 281.315 253.589 281.356C250.333 281.681 243.582 282.943 234.941 287.745C230.785 290.048 226.108 291.242 221.358 291.213V291.213Z" fill="#3F3D56"/>
<path d="M209.872 233.381L194.412 229.188C193.576 228.96 192.864 228.41 192.433 227.659C192.003 226.907 191.887 226.015 192.113 225.178L197.548 205.127C198.13 202.979 199.487 201.123 201.356 199.916C203.225 198.71 205.475 198.238 207.672 198.592C209.868 198.947 211.855 200.102 213.251 201.835C214.646 203.569 215.35 205.757 215.228 207.979L213.99 230.407C213.964 230.893 213.829 231.367 213.595 231.794C213.362 232.222 213.036 232.591 212.641 232.877C212.246 233.162 211.793 233.355 211.314 233.442C210.835 233.53 210.342 233.509 209.872 233.381V233.381Z" fill="#3F3D56"/>
<path d="M227.083 179.576C236.933 179.576 244.918 171.588 244.918 161.735C244.918 151.882 236.933 143.895 227.083 143.895C217.232 143.895 209.247 151.882 209.247 161.735C209.247 171.588 217.232 179.576 227.083 179.576Z" fill="#FFB8B8"/>
<path d="M291.714 196.786C291.625 197.178 291.567 197.576 291.54 197.977L260.346 215.978L252.764 211.612L244.681 222.196L260.901 233.761L296.489 205.677C297.941 206.215 299.521 206.297 301.021 205.914C302.52 205.531 303.868 204.7 304.884 203.532C305.9 202.364 306.536 200.915 306.709 199.376C306.881 197.838 306.581 196.283 305.849 194.92C305.116 193.556 303.986 192.447 302.609 191.742C301.231 191.036 299.671 190.767 298.137 190.969C296.603 191.172 295.166 191.837 294.019 192.876C292.872 193.915 292.068 195.278 291.714 196.786V196.786Z" fill="#FFB8B8"/>
<path d="M257.761 216.846L244.324 225.569C243.597 226.04 242.712 226.203 241.865 226.022C241.017 225.842 240.276 225.333 239.804 224.606L228.497 207.179C227.286 205.312 226.809 203.063 227.157 200.865C227.506 198.667 228.656 196.676 230.385 195.276C232.114 193.876 234.3 193.166 236.522 193.283C238.744 193.399 240.844 194.335 242.417 195.909L258.293 211.793C258.637 212.138 258.9 212.554 259.063 213.014C259.225 213.473 259.283 213.962 259.232 214.447C259.181 214.931 259.023 215.398 258.768 215.813C258.514 216.228 258.169 216.581 257.761 216.846Z" fill="#3F3D56"/>
<path d="M214.461 175.85C217.788 179.395 223.968 177.492 224.401 172.648C224.435 172.272 224.433 171.894 224.394 171.518C224.17 169.373 222.931 167.425 223.228 165.16C223.295 164.596 223.505 164.059 223.838 163.599C226.489 160.048 232.713 165.188 235.215 161.973C236.75 160.001 234.946 156.898 236.124 154.694C237.678 151.786 242.281 153.221 245.167 151.628C248.379 149.856 248.187 144.927 246.073 141.929C243.494 138.273 238.974 136.322 234.51 136.041C230.045 135.76 225.612 136.967 221.444 138.591C216.709 140.437 212.013 142.988 209.099 147.153C205.555 152.219 205.214 159.028 206.986 164.951C208.064 168.553 211.744 172.955 214.461 175.85Z" fill="#2F2E41"/>
</g>
<defs>
<clipPath id="clip0_1402_22">
<rect width="840" height="320" rx="8" fill="white"/>
</clipPath>
</defs>
</svg>
