<svg width="512" height="512" viewBox="0 0 512 512" fill="none" xmlns="http://www.w3.org/2000/svg">
<rect width="512" height="512" fill="black" fill-opacity="0"/>
<path d="M468.181 8.64498L30.1813 90.77C12.6813 94.0512 0 109.331 0 127.136V385.722C0 403.527 12.6813 418.807 30.1813 422.088L468.181 504.213C490.952 508.482 512 491.014 512 467.847V45.0112C512 21.8441 490.952 4.37555 468.181 8.64498Z" fill="url(#paint0_linear)"/>
<path d="M468.181 8.64498L30.1813 90.77C12.6813 94.0512 0 109.331 0 127.136V385.722C0 403.527 12.6813 418.807 30.1813 422.088L468.181 504.213C490.952 508.482 512 491.014 512 467.847V45.0112C512 21.8441 490.952 4.37555 468.181 8.64498Z" fill="url(#paint1_linear)"/>
<circle cx="256" cy="256" r="160" fill="white" fill-opacity="0.51"/>
<g filter="url(#filter0_d)">
<circle cx="256" cy="256" r="128" fill="white"/>
</g>
<g filter="url(#filter1_d)">
<circle cx="144" cy="144" r="16" fill="white"/>
</g>
<defs>
<filter id="filter0_d" x="120" y="124" width="272" height="272" filterUnits="userSpaceOnUse" color-interpolation-filters="sRGB">
<feFlood flood-opacity="0" result="BackgroundImageFix"/>
<feColorMatrix in="SourceAlpha" type="matrix" values="0 0 0 0 0 0 0 0 0 0 0 0 0 0 0 0 0 0 255 0"/>
<feOffset dy="4"/>
<feGaussianBlur stdDeviation="4"/>
<feColorMatrix type="matrix" values="0 0 0 0 0 0 0 0 0 0 0 0 0 0 0 0 0 0 0.11 0"/>
<feBlend mode="normal" in2="BackgroundImageFix" result="effect1_dropShadow"/>
<feBlend mode="normal" in="SourceGraphic" in2="effect1_dropShadow" result="shape"/>
</filter>
<filter id="filter1_d" x="120" y="124" width="48" height="48" filterUnits="userSpaceOnUse" color-interpolation-filters="sRGB">
<feFlood flood-opacity="0" result="BackgroundImageFix"/>
<feColorMatrix in="SourceAlpha" type="matrix" values="0 0 0 0 0 0 0 0 0 0 0 0 0 0 0 0 0 0 255 0"/>
<feOffset dy="4"/>
<feGaussianBlur stdDeviation="4"/>
<feColorMatrix type="matrix" values="0 0 0 0 0 0 0 0 0 0 0 0 0 0 0 0 0 0 0.11 0"/>
<feBlend mode="normal" in2="BackgroundImageFix" result="effect1_dropShadow"/>
<feBlend mode="normal" in="SourceGraphic" in2="effect1_dropShadow" result="shape"/>
</filter>
<linearGradient id="paint0_linear" x1="512" y1="8.00002" x2="-1.22568e-05" y2="509" gradientUnits="userSpaceOnUse">
<stop stop-color="#00D1FF"/>
<stop offset="1" stop-color="#0563D0"/>
</linearGradient>
<linearGradient id="paint1_linear" x1="512" y1="8.00002" x2="-1.22568e-05" y2="509" gradientUnits="userSpaceOnUse">
<stop stop-color="#00D1FF"/>
<stop offset="1" stop-color="#0563D0"/>
</linearGradient>
</defs>
</svg>
