<svg width="566" height="192" viewBox="0 0 566 192" fill="none" xmlns="http://www.w3.org/2000/svg">
<path d="M89.1478 96.4058L63.0014 97.1005C62.7297 95.248 61.9921 93.6077 60.7886 92.1797C59.5851 90.7131 58.0128 89.5745 56.0717 88.764C54.1695 87.9149 51.9566 87.4904 49.4332 87.4904C46.1334 87.4904 43.3188 88.1465 40.9895 89.4587C38.699 90.771 37.5732 92.5463 37.612 94.7848C37.5732 96.5216 38.272 98.0268 39.7084 99.3004C41.1836 100.574 43.8041 101.597 47.5698 102.369L64.8066 105.611C73.7356 107.309 80.3741 110.126 84.7222 114.063C89.109 118 91.3219 123.21 91.3607 129.694C91.3219 135.792 89.4973 141.099 85.8868 145.614C82.3152 150.13 77.4237 153.642 71.2122 156.151C65.0007 158.621 57.8964 159.856 49.8991 159.856C37.1267 159.856 27.0525 157.251 19.6764 152.04C12.3391 146.791 8.14633 139.767 7.09814 130.968L35.2245 130.273C35.8456 133.515 37.4567 135.985 40.0578 137.683C42.6588 139.381 45.9781 140.23 50.0156 140.23C53.6648 140.23 56.6347 139.555 58.9251 138.204C61.2156 136.853 62.3803 135.059 62.4191 132.82C62.3803 130.813 61.4874 129.211 59.7404 128.015C57.9934 126.78 55.2565 125.815 51.5296 125.12L35.9233 122.168C26.9555 120.547 20.2781 117.556 15.8913 113.195C11.5044 108.795 9.33039 103.199 9.36922 96.4058C9.33039 90.4622 10.9221 85.387 14.1443 81.1801C17.3665 76.9347 21.9475 73.6927 27.8872 71.4542C33.8269 69.2157 40.8342 68.0965 48.9091 68.0965C61.0215 68.0965 70.5717 70.6244 77.5596 75.6803C84.5475 80.6977 88.4102 87.6062 89.1478 96.4058Z" fill="#F8FAFC"/>
<path d="M131.061 134.846L131.177 101.095H135.137L160.293 69.2543H192.554L155.169 114.873H147.657L131.061 134.846ZM105.38 158.177V39.6134H133.856V158.177H105.38ZM160.934 158.177L137.525 121.242L156.275 101.153L193.835 158.177H160.934Z" fill="#F8FAFC"/>
<path d="M202.745 158.177V69.2543H231.221V158.177H202.745ZM217.012 58.8916C213.013 58.8916 209.578 57.5793 206.705 54.9549C203.832 52.2918 202.396 49.0885 202.396 45.3448C202.396 41.6396 203.832 38.4749 206.705 35.8504C209.578 33.1874 213.013 31.8558 217.012 31.8558C221.049 31.8558 224.485 33.1874 227.319 35.8504C230.192 38.4749 231.628 41.6396 231.628 45.3448C231.628 49.0885 230.192 52.2918 227.319 54.9549C224.485 57.5793 221.049 58.8916 217.012 58.8916Z" fill="#F8FAFC"/>
<path d="M300.183 69.2543V90.0955H242.649V69.2543H300.183ZM254.645 158.177V64.7387C254.645 57.8688 255.945 52.1761 258.546 47.6605C261.147 43.1063 264.758 39.7099 269.378 37.4714C273.997 35.1943 279.335 34.0557 285.392 34.0557C289.351 34.0557 293.078 34.3645 296.572 34.982C300.105 35.561 302.726 36.082 304.434 36.5451L299.892 57.2706C298.843 56.9232 297.562 56.6338 296.048 56.4022C294.573 56.1706 293.175 56.0548 291.855 56.0548C288.517 56.0548 286.226 56.7881 284.984 58.2548C283.742 59.7214 283.121 61.7283 283.121 64.2756V158.177H254.645Z" fill="#F8FAFC"/>
<path d="M364.37 69.2543V90.0955H307.942V69.2543H364.37ZM319.763 47.9499H348.239V130.215C348.239 131.952 348.511 133.36 349.054 134.441C349.637 135.483 350.471 136.236 351.558 136.699C352.645 137.123 353.946 137.336 355.46 137.336C356.547 137.336 357.692 137.239 358.896 137.046C360.138 136.815 361.07 136.622 361.691 136.467L366 156.903C364.641 157.289 362.72 157.772 360.235 158.351C357.789 158.93 354.858 159.296 351.442 159.451C344.765 159.759 339.038 158.987 334.263 157.135C329.527 155.244 325.897 152.311 323.374 148.335C320.889 144.36 319.686 139.362 319.763 133.341V47.9499Z" fill="#F8FAFC"/>
<g filter="url(#filter0_dii_1427_24)">
<path d="M542 119.332C542 128.345 542 132.852 539.858 136.564C537.715 140.276 533.813 142.53 526.009 147.039L486.009 170.15C478.196 174.664 474.29 176.921 470 176.921C465.71 176.921 461.804 174.664 453.991 170.15L413.991 147.039C406.187 142.53 402.285 140.276 400.142 136.564C398 132.852 398 128.345 398 119.332L398 73.0684C398 64.055 398 59.5484 400.142 55.8364C402.285 52.1244 406.187 49.8699 413.991 45.3607L453.991 22.2496C461.804 17.7356 465.71 15.4786 470 15.4786C474.29 15.4786 478.196 17.7356 486.009 22.2496L526.009 45.3607C533.813 49.8699 537.715 52.1244 539.858 55.8364C542 59.5484 542 64.055 542 73.0684V119.332Z" fill="url(#paint0_radial_1427_24)"/>
<path d="M525.008 145.308L485.008 168.419C481.068 170.695 478.237 172.329 475.858 173.407C473.519 174.467 471.761 174.921 470 174.921C468.239 174.921 466.481 174.467 464.142 173.407C461.763 172.329 458.932 170.695 454.992 168.419L414.992 145.308C411.056 143.034 408.229 141.398 406.109 139.877C404.024 138.382 402.754 137.088 401.875 135.564C400.995 134.04 400.51 132.293 400.258 129.739C400.002 127.143 400 123.877 400 119.332L400 73.0684C400 68.5228 400.002 65.2573 400.258 62.6605C400.51 60.1075 400.995 58.3598 401.875 56.8361C402.754 55.3125 404.024 54.0178 406.109 52.5228C408.229 51.002 411.056 49.3665 414.992 47.0924L454.992 23.9813C458.932 21.7049 461.763 20.0714 464.142 18.9929C466.481 17.9327 468.239 17.4786 470 17.4786C471.761 17.4786 473.519 17.9327 475.858 18.9929C478.237 20.0714 481.068 21.7049 485.008 23.9813L525.008 47.0924C528.944 49.3665 531.771 51.002 533.891 52.5227C535.976 54.0178 537.246 55.3125 538.125 56.8361C539.005 58.3598 539.49 60.1075 539.742 62.6605C539.998 65.2573 540 68.5228 540 73.0684V119.332C540 123.877 539.998 127.143 539.742 129.739C539.49 132.292 539.005 134.04 538.125 135.564C537.246 137.088 535.976 138.382 533.891 139.877C531.771 141.398 528.944 143.034 525.008 145.308Z" stroke="white" stroke-opacity="0.08" stroke-width="4"/>
</g>
<g filter="url(#filter1_d_1427_24)">
<path d="M519.234 83.9068C517.871 82.5119 515.629 82.5064 514.259 83.8947L508.501 89.7304C507.841 90.3986 506.94 90.7727 506.001 90.7679L496.802 90.7212C495.563 90.7149 494.42 90.0513 493.801 88.9781L487.659 78.3402C487.039 77.267 487.036 75.9456 487.65 74.8693L492.209 66.8793C492.674 66.0639 493.449 65.4706 494.357 65.2336L502.306 63.1604C504.187 62.6698 505.304 60.7356 504.788 58.8615L503.646 54.7129C503.139 52.8736 501.249 51.7829 499.403 52.2653L496.32 53.071C494.486 53.5505 492.605 52.4761 492.085 50.6525L491.125 47.2769C490.607 45.4582 488.734 44.3838 486.902 44.8552L483.026 45.853C481.135 46.3396 480.012 48.2841 480.536 50.1649L482.843 58.4446C483.093 59.3409 482.974 60.2998 482.513 61.108L477.984 69.044C477.35 70.1557 476.158 70.8304 474.878 70.8017L463.239 70.5404C462.022 70.5131 460.907 69.8526 460.298 68.7981L455.594 60.6501C455.142 59.8668 455.012 58.9383 455.231 58.0609L457.332 49.6613C457.79 47.8327 456.711 45.9715 454.897 45.4598L450.898 44.3319C449.006 43.7981 447.047 44.9338 446.569 46.8412L445.853 49.7051C445.375 51.6171 443.408 52.7528 441.513 52.211L438.674 51.3996C436.784 50.8591 434.821 51.9879 434.337 53.8936L433.314 57.9206C432.85 59.7476 433.923 61.6125 435.735 62.1307L444.06 64.5106C444.929 64.7593 445.668 65.3362 446.121 66.1195L450.815 74.2497C451.429 75.3138 451.438 76.6228 450.838 77.6951L445.039 88.0598C444.42 89.167 443.248 89.8503 441.979 89.8439L432.853 89.7975C431.904 89.7927 430.998 89.4009 430.344 88.7127L424.524 82.5877C423.163 81.1555 420.885 81.1392 419.504 82.5518L416.793 85.3235C415.468 86.6792 415.469 88.8457 416.795 90.2003L419.239 92.6956C420.571 94.0551 420.566 96.2313 419.229 97.5851L417.002 99.8393C415.662 101.197 415.661 103.379 417 104.738L420.022 107.801C421.387 109.185 423.62 109.185 424.986 107.802L430.756 101.954C431.415 101.286 432.316 100.912 433.255 100.916L442.454 100.963C443.693 100.969 444.836 101.633 445.456 102.706L451.626 113.393C452.245 114.466 452.249 115.788 451.635 116.864L447.076 124.854C446.61 125.669 445.836 126.263 444.927 126.5L436.978 128.573C435.097 129.063 433.981 130.998 434.497 132.872L435.639 137.02C436.145 138.86 438.036 139.95 439.882 139.468L442.943 138.668C444.786 138.186 446.674 139.273 447.184 141.108L448.1 144.407C448.608 146.238 450.488 147.325 452.328 146.851L456.183 145.859C458.074 145.372 459.197 143.428 458.673 141.547L456.366 133.267C456.116 132.371 456.235 131.412 456.696 130.604L461.225 122.668C461.859 121.556 463.051 120.881 464.331 120.91L475.97 121.171C477.187 121.199 478.302 121.859 478.911 122.914L483.615 131.062C484.067 131.845 484.197 132.773 483.978 133.651L481.877 142.05C481.419 143.879 482.498 145.74 484.312 146.252L488.311 147.38C490.203 147.914 492.162 146.778 492.64 144.87L493.356 142.007C493.834 140.095 495.801 138.959 497.696 139.501L500.523 140.309C502.418 140.85 504.385 139.715 504.863 137.803L505.864 133.8C506.32 131.98 505.253 130.126 503.45 129.605L495.142 127.203C494.277 126.953 493.542 126.378 493.091 125.597L488.391 117.456C487.778 116.395 487.768 115.091 488.362 114.02L494.143 103.612C494.761 102.5 495.936 101.812 497.209 101.819L506.36 101.865C507.29 101.87 508.18 102.247 508.831 102.911L514.844 109.044C516.213 110.44 518.461 110.438 519.827 109.039L522.418 106.388C523.742 105.032 523.741 102.867 522.415 101.512L519.97 99.0161C518.638 97.6565 518.643 95.4804 519.98 94.1266L522.218 91.8609C523.554 90.5082 523.56 88.3343 522.231 86.9743L519.234 83.9068ZM454.679 97.3507C454.066 96.2898 454.056 94.9854 454.65 93.9146L460.418 83.5307C461.043 82.4057 462.237 81.7164 463.524 81.7378L475.4 81.9345C476.625 81.9548 477.749 82.6164 478.362 83.6772L484.53 94.361C485.143 95.4218 485.153 96.7263 484.559 97.7971L478.791 108.181C478.166 109.306 476.972 109.995 475.685 109.974L463.809 109.777C462.584 109.757 461.46 109.095 460.847 108.034L454.679 97.3507Z" fill="white"/>
</g>
<defs>
<filter id="filter0_dii_1427_24" x="394" y="13.4786" width="152" height="169.443" filterUnits="userSpaceOnUse" color-interpolation-filters="sRGB">
<feFlood flood-opacity="0" result="BackgroundImageFix"/>
<feColorMatrix in="SourceAlpha" type="matrix" values="0 0 0 0 0 0 0 0 0 0 0 0 0 0 0 0 0 0 127 0" result="hardAlpha"/>
<feOffset dy="2"/>
<feGaussianBlur stdDeviation="2"/>
<feColorMatrix type="matrix" values="0 0 0 0 0 0 0 0 0 0 0 0 0 0 0 0 0 0 0.08 0"/>
<feBlend mode="normal" in2="BackgroundImageFix" result="effect1_dropShadow_1427_24"/>
<feBlend mode="normal" in="SourceGraphic" in2="effect1_dropShadow_1427_24" result="shape"/>
<feColorMatrix in="SourceAlpha" type="matrix" values="0 0 0 0 0 0 0 0 0 0 0 0 0 0 0 0 0 0 127 0" result="hardAlpha"/>
<feOffset dy="2"/>
<feComposite in2="hardAlpha" operator="arithmetic" k2="-1" k3="1"/>
<feColorMatrix type="matrix" values="0 0 0 0 1 0 0 0 0 1 0 0 0 0 1 0 0 0 0.25 0"/>
<feBlend mode="normal" in2="shape" result="effect2_innerShadow_1427_24"/>
<feColorMatrix in="SourceAlpha" type="matrix" values="0 0 0 0 0 0 0 0 0 0 0 0 0 0 0 0 0 0 127 0" result="hardAlpha"/>
<feOffset dy="-2"/>
<feComposite in2="hardAlpha" operator="arithmetic" k2="-1" k3="1"/>
<feColorMatrix type="matrix" values="0 0 0 0 0 0 0 0 0 0 0 0 0 0 0 0 0 0 0.25 0"/>
<feBlend mode="normal" in2="effect2_innerShadow_1427_24" result="effect3_innerShadow_1427_24"/>
</filter>
<filter id="filter1_d_1427_24" x="414.8" y="44.2" width="109.61" height="105.312" filterUnits="userSpaceOnUse" color-interpolation-filters="sRGB">
<feFlood flood-opacity="0" result="BackgroundImageFix"/>
<feColorMatrix in="SourceAlpha" type="matrix" values="0 0 0 0 0 0 0 0 0 0 0 0 0 0 0 0 0 0 127 0" result="hardAlpha"/>
<feOffset dy="1"/>
<feGaussianBlur stdDeviation="0.5"/>
<feComposite in2="hardAlpha" operator="out"/>
<feColorMatrix type="matrix" values="0 0 0 0 0 0 0 0 0 0 0 0 0 0 0 0 0 0 0.05 0"/>
<feBlend mode="normal" in2="BackgroundImageFix" result="effect1_dropShadow_1427_24"/>
<feBlend mode="normal" in="SourceGraphic" in2="effect1_dropShadow_1427_24" result="shape"/>
</filter>
<radialGradient id="paint0_radial_1427_24" cx="0" cy="0" r="1" gradientUnits="userSpaceOnUse" gradientTransform="translate(398 15.4786) rotate(48.2684) scale(216.333 214.926)">
<stop stop-color="#1773E6"/>
<stop offset="1" stop-color="#22D3EE"/>
</radialGradient>
</defs>
</svg>
