<svg width="375" height="120" viewBox="0 0 375 120" fill="none" xmlns="http://www.w3.org/2000/svg">
<path fill-rule="evenodd" clip-rule="evenodd" d="M4.68629 4.68629C0 9.37258 0 16.9151 0 32V88C0 103.085 0 110.627 4.68629 115.314C9.37258 120 16.9151 120 32 120H118C133.085 120 140.627 120 145.314 115.314C150 110.627 150 103.085 150 88V32C150 16.9151 150 9.37258 145.314 4.68629C140.627 0 133.085 0 118 0H32C16.9151 0 9.37258 0 4.68629 4.68629Z" fill="#1D4ED8"/>
<path fill-rule="evenodd" clip-rule="evenodd" d="M115.552 78.88V71.456H108.256V66.656C108.256 65.312 108.256 63.072 109.28 61.728C109.664 61.216 110.56 60.576 111.968 60.576C113.12 60.576 114.464 61.024 115.488 61.664V53.6C113.952 53.024 112.288 52.64 110.24 52.64C106.72 52.64 104.096 53.92 102.24 55.904C99.3596 58.976 99.0395 62.624 99.0395 65.824V71.456H95.7115V78.88H99.0395V100H108.256V78.88H115.552ZM44.59 53.344V100H53.806V87.712L64.814 100H77.23L62.702 84.384L76.27 71.456H64.174L53.806 81.952V53.344H44.59ZM37.704 72.928C35.4 71.584 32.456 70.496 28.232 70.496C25.608 70.496 22.152 71.008 19.592 73.376C17.928 74.912 16.84 77.216 16.84 79.968C16.84 82.144 17.544 83.744 18.888 85.152C20.104 86.368 21.832 87.264 23.496 87.776L25.8 88.48C27.144 88.864 27.976 89.12 28.616 89.504C29.448 90.016 29.64 90.656 29.64 91.168C29.64 91.872 29.256 92.576 28.68 93.024C27.848 93.664 26.376 93.664 25.8 93.664C24.584 93.664 23.24 93.408 21.96 92.768C21 92.32 19.72 91.424 18.824 90.656L14.92 96.864C18.632 100.128 22.792 100.96 26.632 100.96C29.64 100.96 33.096 100.512 35.912 97.696C37.192 96.416 38.856 93.984 38.856 90.208C38.856 88.032 38.28 86.304 36.616 84.768C35.144 83.424 33.48 82.784 31.88 82.272L29.448 81.504C29.0788 81.3809 28.7293 81.2776 28.4037 81.1813C27.7137 80.9772 27.1308 80.8049 26.696 80.544C26.248 80.288 25.8 79.904 25.8 79.264C25.8 78.816 26.056 78.304 26.376 77.984C26.952 77.408 28.04 77.152 29 77.152C30.792 77.152 32.648 77.92 34.056 78.752L37.704 72.928ZM81.224 100V71.456H90.44V100H81.224ZM85.832 64.672C82.824 64.672 80.456 62.304 80.456 59.296C80.456 56.288 82.824 53.92 85.832 53.92C88.84 53.92 91.208 56.288 91.208 59.296C91.208 62.304 88.84 64.672 85.832 64.672ZM136.315 71.456V78.88H130.619V100H121.403V78.88H118.203V71.456H121.403V62.24H130.619V71.456H136.315Z" fill="white"/>
<path d="M228.21 5.87988C206.93 5.87988 193.65 14.3599 186.45 21.5599C176.85 31.1599 169.97 46.6799 169.97 62.0399C169.97 77.7199 176.37 92.1199 186.61 101.72C194.61 109.4 208.21 117.4 228.21 117.4C246.13 117.4 259.57 111.32 269.49 101.72C281.01 90.5199 286.13 75.9599 286.13 61.7199C286.13 45.2399 279.57 31.1599 269.49 21.3999C258.77 10.9999 244.85 5.87988 228.21 5.87988ZM228.05 28.5999C237.81 28.5999 246.29 32.5999 251.57 37.7199C256.37 42.5199 260.85 50.6799 260.85 61.7199C260.85 74.0399 255.73 81.5599 251.57 85.5599C246.45 90.6799 238.77 94.6799 227.89 94.6799C219.57 94.6799 211.89 92.4399 205.01 85.8799C198.45 79.4799 195.25 71.6399 195.25 61.8799C195.25 50.0399 200.05 42.1999 204.69 37.7199C210.45 31.9599 218.77 28.5999 228.05 28.5999Z" fill="white"/>
<path d="M370.541 16.4399C358.061 7.15989 346.221 5.87988 338.861 5.87988C328.941 5.87988 319.981 7.95988 312.461 15.6399C306.061 22.1999 303.181 30.1999 303.181 39.6399C303.181 44.7599 303.981 52.2799 309.581 58.1999C313.741 62.6799 319.501 64.9199 324.461 66.6799L333.261 69.7199C336.301 70.8399 342.861 73.2399 345.741 75.6399C347.981 77.5599 349.421 79.7999 349.421 83.3199C349.421 87.3199 347.661 90.1999 345.581 91.9599C342.061 94.9999 337.581 95.6399 334.381 95.6399C329.421 95.6399 325.101 94.3599 320.941 91.7999C318.061 90.0399 313.741 86.3599 311.021 83.6399L298.221 101.24C302.221 105.24 308.461 110.2 313.901 112.92C320.621 116.28 327.341 117.4 335.021 117.4C342.061 117.4 355.821 116.44 365.261 106.52C370.861 100.76 374.701 91.1599 374.701 80.1199C374.701 73.8799 373.101 66.1999 366.861 60.2799C362.701 56.2799 356.941 53.8799 352.301 52.1199L344.301 49.0799C337.101 46.3599 333.421 45.3999 330.861 42.9999C329.261 41.5599 328.461 39.6399 328.461 37.0799C328.461 34.3599 329.581 31.9599 331.181 30.3599C334.061 27.1599 338.221 26.6799 341.581 26.6799C344.621 26.6799 351.501 27.1599 359.501 34.3599L370.541 16.4399Z" fill="white"/>
</svg>
