<?xml version="1.0" encoding="UTF-8"?>
<svg width="93.217mm" height="69.497mm" version="1.1" viewBox="0 0 93.217 69.497" xmlns="http://www.w3.org/2000/svg"
    xmlns:cc="http://creativecommons.org/ns#" xmlns:dc="http://purl.org/dc/elements/1.1/"
    xmlns:rdf="http://www.w3.org/1999/02/22-rdf-syntax-ns#">
    <metadata>
        <rdf:RDF>
            <cc:Work rdf:about="">
                <dc:format>image/svg+xml</dc:format>
                <dc:type rdf:resource="http://purl.org/dc/dcmitype/StillImage" />
                <dc:title />
            </cc:Work>
        </rdf:RDF>
    </metadata>
    <g transform="translate(0 19.497)">
        <rect y="-19.497" width="93.217" height="69.497" fill="#a00" />
        <rect x="5.6831" y="-14.441" width="8.8" height="40" ry="0" fill="#fff" />
        <rect x="5.6332" y="21.559" width="4.45" height="4.05" fill="#a00" />
        <rect x="10.083" y="17.559" width="4.45" height="4" fill="#a00" />
        <rect x="5.6332" y="13.559" width="4.45" height="4" fill="#a00" />
        <rect x="10.083" y="9.5594" width="4.45" height="4" fill="#a00" />
        <rect x="5.6834" y="-14.441" width="35.2" height="8.8" fill="#fff" />
        <rect x="32.083" y="-14.441" width="8.8" height="40" ry="0" fill="#fff" />
        <rect x="36.483" y="21.559" width="4.45" height="4.05" fill="#a00" />
        <rect x="32.033" y="17.559" width="4.45" height="4" fill="#a00" />
        <rect x="36.483" y="13.559" width="4.45" height="4" fill="#a00" />
        <rect x="32.033" y="9.5594" width="4.45" height="4" fill="#a00" />
        <rect x="20.083" y="-14.441" width="6.6202" height="40" ry="0" fill="#fff" />
        <rect x="46.083" y="-14.441" width="8.8" height="40" ry="0" fill="#fff" />
        <rect x="70.083" y="-14.441" width="8.8" height="40" ry="0" fill="#fff" />
        <rect x="60.283" y="-14.441" width="28.4" height="8.8" fill="#fff" />
        <rect x="70.033" y="21.559" width="4.45" height="4.05" fill="#a00" />
        <rect x="74.483" y="17.559" width="4.45" height="4" fill="#a00" />
        <rect x="70.033" y="13.559" width="4.45" height="4" fill="#a00" />
        <rect x="74.483" y="9.5594" width="4.45" height="4" fill="#a00" />
        <text x="12.171427" y="44.462078" fill="#ffffff" font-family="'Liberation Sans'" font-size="11.289px"
            letter-spacing="0px" stroke-width="1px" word-spacing="0px" style="line-height:125%" xml:space="preserve">
            <tspan x="12.171427" y="44.462078" font-family="'Liberation Sans'" font-size="19.756px">License</tspan>
        </text>
    </g>
</svg>
