<svg xmlns="http://www.w3.org/2000/svg" width="352.316" height="262.666" version="1.1" viewBox="0 0 93.217 69.497"><metadata/><g transform="translate(0 19.497)"><rect width="93.217" height="69.497" y="-19.497" fill="#a00"/><rect width="8.8" height="40" x="5.683" y="-14.441" fill="#fff" ry="0"/><rect width="4.45" height="4.05" x="5.633" y="21.559" fill="#a00"/><rect width="4.45" height="4" x="10.083" y="17.559" fill="#a00"/><rect width="4.45" height="4" x="5.633" y="13.559" fill="#a00"/><rect width="4.45" height="4" x="10.083" y="9.559" fill="#a00"/><rect width="35.2" height="8.8" x="5.683" y="-14.441" fill="#fff"/><rect width="8.8" height="40" x="32.083" y="-14.441" fill="#fff" ry="0"/><rect width="4.45" height="4.05" x="36.483" y="21.559" fill="#a00"/><rect width="4.45" height="4" x="32.033" y="17.559" fill="#a00"/><rect width="4.45" height="4" x="36.483" y="13.559" fill="#a00"/><rect width="4.45" height="4" x="32.033" y="9.559" fill="#a00"/><rect width="6.62" height="40" x="20.083" y="-14.441" fill="#fff" ry="0"/><rect width="8.8" height="40" x="46.083" y="-14.441" fill="#fff" ry="0"/><rect width="8.8" height="40" x="70.083" y="-14.441" fill="#fff" ry="0"/><rect width="28.4" height="8.8" x="60.283" y="-14.441" fill="#fff"/><rect width="4.45" height="4.05" x="70.033" y="21.559" fill="#a00"/><rect width="4.45" height="4" x="74.483" y="17.559" fill="#a00"/><rect width="4.45" height="4" x="70.033" y="13.559" fill="#a00"/><rect width="4.45" height="4" x="74.483" y="9.559" fill="#a00"/><text x="12.171" y="44.462" fill="#fff" stroke-width="1" font-family="'Liberation Sans'" font-size="11.289" letter-spacing="0" word-spacing="0" style="line-height:125%" xml:space="preserve"><tspan x="12.171" y="44.462" font-family="'Liberation Sans'" font-size="19.756">License</tspan></text></g></svg>