<svg width="382" height="120" viewBox="0 0 382 120" fill="none" xmlns="http://www.w3.org/2000/svg">
<path d="M0 32C0 16.9151 0 9.37258 4.68629 4.68629C9.37258 0 16.9151 0 32 0H118C133.085 0 140.627 0 145.314 4.68629C150 9.37258 150 16.9151 150 32V88C150 103.085 150 110.627 145.314 115.314C140.627 120 133.085 120 118 120H32C16.9151 120 9.37258 120 4.68629 115.314C0 110.627 0 103.085 0 88V32Z" fill="#0066FF"/>
<path d="M37.704 72.928C35.4 71.584 32.456 70.496 28.232 70.496C25.608 70.496 22.152 71.008 19.592 73.376C17.928 74.912 16.84 77.216 16.84 79.968C16.84 82.144 17.544 83.744 18.888 85.152C20.104 86.368 21.832 87.264 23.496 87.776L25.8 88.48C27.144 88.864 27.976 89.12 28.616 89.504C29.448 90.016 29.64 90.656 29.64 91.168C29.64 91.872 29.256 92.576 28.68 93.024C27.848 93.664 26.376 93.664 25.8 93.664C24.584 93.664 23.24 93.408 21.96 92.768C21 92.32 19.72 91.424 18.824 90.656L14.92 96.864C18.632 100.128 22.792 100.96 26.632 100.96C29.64 100.96 33.096 100.512 35.912 97.696C37.192 96.416 38.856 93.984 38.856 90.208C38.856 88.032 38.28 86.304 36.616 84.768C35.144 83.424 33.48 82.784 31.88 82.272L29.448 81.504C28.296 81.12 27.336 80.928 26.696 80.544C26.248 80.288 25.8 79.904 25.8 79.264C25.8 78.816 26.056 78.304 26.376 77.984C26.952 77.408 28.04 77.152 29 77.152C30.792 77.152 32.648 77.92 34.056 78.752L37.704 72.928ZM44.59 53.344V100H53.806V87.712L64.814 100H77.23L62.702 84.384L76.27 71.456H64.174L53.806 81.952V53.344H44.59ZM81.224 71.456V100H90.44V71.456H81.224ZM80.456 59.296C80.456 62.304 82.824 64.672 85.832 64.672C88.84 64.672 91.208 62.304 91.208 59.296C91.208 56.288 88.84 53.92 85.832 53.92C82.824 53.92 80.456 56.288 80.456 59.296ZM115.552 78.88V71.456H108.256V66.656C108.256 65.312 108.256 63.072 109.28 61.728C109.664 61.216 110.56 60.576 111.968 60.576C113.12 60.576 114.464 61.024 115.488 61.664V53.6C113.952 53.024 112.288 52.64 110.24 52.64C106.72 52.64 104.095 53.92 102.24 55.904C99.3595 58.976 99.0395 62.624 99.0395 65.824V71.456H95.7115V78.88H99.0395V100H108.256V78.88H115.552ZM136.315 78.88V71.456H130.619V62.24H121.403V71.456H118.203V78.88H121.403V100H130.619V78.88H136.315Z" fill="white"/>
<path d="M228.21 5.87999C206.93 5.87999 193.65 14.36 186.45 21.56C176.85 31.16 169.97 46.68 169.97 62.04C169.97 77.72 176.37 92.12 186.61 101.72C194.61 109.4 208.21 117.4 228.21 117.4C246.13 117.4 259.57 111.32 269.49 101.72C281.01 90.52 286.13 75.96 286.13 61.72C286.13 45.24 279.57 31.16 269.49 21.4C258.77 11 244.85 5.87999 228.21 5.87999ZM228.05 28.6C237.81 28.6 246.29 32.6 251.57 37.72C256.37 42.52 260.85 50.68 260.85 61.72C260.85 74.04 255.73 81.56 251.57 85.56C246.45 90.68 238.77 94.68 227.89 94.68C219.57 94.68 211.89 92.44 205.01 85.88C198.45 79.48 195.25 71.64 195.25 61.88C195.25 50.04 200.05 42.2 204.69 37.72C210.45 31.96 218.77 28.6 228.05 28.6ZM370.541 16.44C358.061 7.16 346.221 5.87999 338.861 5.87999C328.941 5.87999 319.981 7.96 312.461 15.64C306.061 22.2 303.181 30.2 303.181 39.64C303.181 44.76 303.981 52.28 309.581 58.2C313.741 62.68 319.501 64.92 324.461 66.68L333.261 69.72C336.301 70.84 342.861 73.24 345.741 75.64C347.981 77.56 349.421 79.8 349.421 83.32C349.421 87.32 347.661 90.2 345.581 91.96C342.061 95 337.581 95.64 334.381 95.64C329.421 95.64 325.101 94.36 320.941 91.8C318.061 90.04 313.741 86.36 311.021 83.64L298.221 101.24C302.221 105.24 308.461 110.2 313.901 112.92C320.621 116.28 327.341 117.4 335.021 117.4C342.061 117.4 355.821 116.44 365.261 106.52C370.861 100.76 374.701 91.16 374.701 80.12C374.701 73.88 373.101 66.2 366.861 60.28C362.701 56.28 356.941 53.88 352.301 52.12L344.301 49.08C337.101 46.36 333.421 45.4 330.861 43C329.261 41.56 328.461 39.64 328.461 37.08C328.461 34.36 329.581 31.96 331.181 30.36C334.061 27.16 338.221 26.68 341.581 26.68C344.621 26.68 351.501 27.16 359.501 34.36L370.541 16.44Z" fill="black"/>
</svg>
