<svg width="178" height="141" viewBox="0 0 178 141" fill="none" xmlns="http://www.w3.org/2000/svg">
<g filter="url(#filter0_d)">
<rect x="16" y="12" width="146" height="109" fill="#0066CC"/>
</g>
<path d="M51.8603 73.928C49.5563 72.584 46.6123 71.496 42.3883 71.496C39.7643 71.496 36.3083 72.008 33.7483 74.376C32.0843 75.912 30.9963 78.216 30.9963 80.968C30.9963 83.144 31.7003 84.744 33.0443 86.152C34.2603 87.368 35.9883 88.264 37.6523 88.776L39.9563 89.48C41.3003 89.864 42.1323 90.12 42.7723 90.504C43.6042 91.016 43.7963 91.656 43.7963 92.168C43.7963 92.872 43.4123 93.576 42.8363 94.024C42.0043 94.664 40.5323 94.664 39.9563 94.664C38.7403 94.664 37.3963 94.408 36.1163 93.768C35.1562 93.32 33.8763 92.424 32.9803 91.656L29.0763 97.864C32.7883 101.128 36.9483 101.96 40.7883 101.96C43.7963 101.96 47.2523 101.512 50.0683 98.696C51.3483 97.416 53.0123 94.984 53.0123 91.208C53.0123 89.032 52.4363 87.304 50.7723 85.768C49.3003 84.424 47.6363 83.784 46.0363 83.272L43.6042 82.504C42.4523 82.12 41.4923 81.928 40.8523 81.544C40.4043 81.288 39.9563 80.904 39.9563 80.264C39.9563 79.816 40.2123 79.304 40.5323 78.984C41.1083 78.408 42.1963 78.152 43.1562 78.152C44.9483 78.152 46.8043 78.92 48.2123 79.752L51.8603 73.928ZM58.7463 54.344V101H67.9623V88.712L78.9703 101H91.3863L76.8583 85.384L90.4263 72.456H78.3303L67.9623 82.952V54.344H58.7463ZM95.3802 72.456V101H104.596V72.456H95.3802ZM94.6123 60.296C94.6123 63.304 96.9803 65.672 99.9883 65.672C102.996 65.672 105.364 63.304 105.364 60.296C105.364 57.288 102.996 54.92 99.9883 54.92C96.9803 54.92 94.6123 57.288 94.6123 60.296ZM129.708 79.88V72.456H122.412V67.656C122.412 66.312 122.412 64.072 123.436 62.728C123.82 62.216 124.716 61.576 126.124 61.576C127.276 61.576 128.62 62.024 129.644 62.664V54.6C128.108 54.024 126.444 53.64 124.396 53.64C120.876 53.64 118.252 54.92 116.396 56.904C113.516 59.976 113.196 63.624 113.196 66.824V72.456H109.868V79.88H113.196V101H122.412V79.88H129.708ZM150.471 79.88V72.456H144.775V63.24H135.559V72.456H132.359V79.88H135.559V101H144.775V79.88H150.471Z" fill="white"/>
<defs>
<filter id="filter0_d" x="0" y="0" width="178" height="141" filterUnits="userSpaceOnUse" color-interpolation-filters="sRGB">
<feFlood flood-opacity="0" result="BackgroundImageFix"/>
<feColorMatrix in="SourceAlpha" type="matrix" values="0 0 0 0 0 0 0 0 0 0 0 0 0 0 0 0 0 0 127 0"/>
<feOffset dy="4"/>
<feGaussianBlur stdDeviation="8"/>
<feColorMatrix type="matrix" values="0 0 0 0 0 0 0 0 0 0.4 0 0 0 0 0.8 0 0 0 0.5 0"/>
<feBlend mode="normal" in2="BackgroundImageFix" result="effect1_dropShadow"/>
<feBlend mode="normal" in="SourceGraphic" in2="effect1_dropShadow" result="shape"/>
</filter>
</defs>
</svg>
