<svg width="210" height="173" viewBox="0 0 210 173" fill="none" xmlns="http://www.w3.org/2000/svg">
<g filter="url(#filter0_d)">
<rect x="32" y="24" width="146" height="109" fill="#0066CC"/>
</g>
<path d="M67.8603 85.928C65.5563 84.584 62.6123 83.496 58.3883 83.496C55.7643 83.496 52.3083 84.008 49.7483 86.376C48.0843 87.912 46.9963 90.216 46.9963 92.968C46.9963 95.144 47.7003 96.744 49.0443 98.152C50.2603 99.368 51.9883 100.264 53.6523 100.776L55.9563 101.48C57.3003 101.864 58.1323 102.12 58.7723 102.504C59.6042 103.016 59.7963 103.656 59.7963 104.168C59.7963 104.872 59.4123 105.576 58.8363 106.024C58.0043 106.664 56.5323 106.664 55.9563 106.664C54.7403 106.664 53.3963 106.408 52.1163 105.768C51.1562 105.32 49.8763 104.424 48.9803 103.656L45.0763 109.864C48.7883 113.128 52.9483 113.96 56.7883 113.96C59.7963 113.96 63.2523 113.512 66.0683 110.696C67.3483 109.416 69.0123 106.984 69.0123 103.208C69.0123 101.032 68.4363 99.304 66.7723 97.768C65.3003 96.424 63.6363 95.784 62.0363 95.272L59.6042 94.504C58.4523 94.12 57.4923 93.928 56.8523 93.544C56.4043 93.288 55.9563 92.904 55.9563 92.264C55.9563 91.816 56.2123 91.304 56.5323 90.984C57.1083 90.408 58.1963 90.152 59.1562 90.152C60.9483 90.152 62.8043 90.92 64.2123 91.752L67.8603 85.928ZM74.7463 66.344V113H83.9623V100.712L94.9703 113H107.386L92.8583 97.384L106.426 84.456H94.3303L83.9623 94.952V66.344H74.7463ZM111.38 84.456V113H120.596V84.456H111.38ZM110.612 72.296C110.612 75.304 112.98 77.672 115.988 77.672C118.996 77.672 121.364 75.304 121.364 72.296C121.364 69.288 118.996 66.92 115.988 66.92C112.98 66.92 110.612 69.288 110.612 72.296ZM145.708 91.88V84.456H138.412V79.656C138.412 78.312 138.412 76.072 139.436 74.728C139.82 74.216 140.716 73.576 142.124 73.576C143.276 73.576 144.62 74.024 145.644 74.664V66.6C144.108 66.024 142.444 65.64 140.396 65.64C136.876 65.64 134.252 66.92 132.396 68.904C129.516 71.976 129.196 75.624 129.196 78.824V84.456H125.868V91.88H129.196V113H138.412V91.88H145.708ZM166.471 91.88V84.456H160.775V75.24H151.559V84.456H148.359V91.88H151.559V113H160.775V91.88H166.471Z" fill="white"/>
<defs>
<filter id="filter0_d" x="0" y="0" width="210" height="173" filterUnits="userSpaceOnUse" color-interpolation-filters="sRGB">
<feFlood flood-opacity="0" result="BackgroundImageFix"/>
<feColorMatrix in="SourceAlpha" type="matrix" values="0 0 0 0 0 0 0 0 0 0 0 0 0 0 0 0 0 0 127 0"/>
<feOffset dy="8"/>
<feGaussianBlur stdDeviation="16"/>
<feColorMatrix type="matrix" values="0 0 0 0 0 0 0 0 0 0.4 0 0 0 0 0.8 0 0 0 0.5 0"/>
<feBlend mode="normal" in2="BackgroundImageFix" result="effect1_dropShadow"/>
<feBlend mode="normal" in="SourceGraphic" in2="effect1_dropShadow" result="shape"/>
</filter>
</defs>
</svg>
