<svg width="178" height="141" viewBox="0 0 178 141" fill="none" xmlns="http://www.w3.org/2000/svg">
<g filter="url(#filter0_d)">
<rect x="16" y="12" width="146" height="109" fill="#66CC00"/>
</g>
<path d="M52.4928 73.096C50.0608 71.944 47.7568 71.496 45.2608 71.496C41.3568 71.496 37.5808 72.52 34.3808 75.528C31.6927 78.088 29.6448 81.928 29.6448 86.792C29.6448 91.976 31.9488 95.56 34.1248 97.672C36.7488 100.232 40.3968 101.96 45.1968 101.96C47.7568 101.96 50.0608 101.576 52.4928 100.232V91.912C50.3808 93.704 48.2048 94.152 46.6048 94.152C44.5568 94.152 42.4448 93.384 41.0368 91.848C39.8848 90.632 39.1168 88.84 39.1168 86.728C39.1168 84.424 40.0128 82.568 41.2288 81.352C41.8688 80.712 43.5968 79.304 46.4768 79.304C47.9488 79.304 50.2528 79.624 52.4928 81.48V73.096ZM90.7433 86.728C90.7433 83.08 89.3353 78.984 86.4553 76.104C83.8953 73.544 79.5433 71.496 73.9753 71.496C68.4073 71.496 64.0553 73.544 61.4953 76.104C58.6153 78.984 57.2073 83.08 57.2073 86.728C57.2073 90.376 58.6153 94.472 61.4953 97.352C64.0553 99.912 68.4073 101.96 73.9753 101.96C79.5433 101.96 83.8953 99.912 86.4553 97.352C89.3353 94.472 90.7433 90.376 90.7433 86.728ZM73.9753 79.304C76.0873 79.304 77.8153 80.008 79.1593 81.352C80.5033 82.696 81.2713 84.424 81.2713 86.728C81.2713 89.032 80.5033 90.76 79.1593 92.104C77.8153 93.448 76.0873 94.152 74.0393 94.152C71.6073 94.152 69.9433 93.256 68.7913 92.104C67.7033 91.016 66.6793 89.352 66.6793 86.728C66.6793 84.424 67.4473 82.696 68.7913 81.352C70.1353 80.008 71.8633 79.304 73.9753 79.304ZM96.4903 101H105.706V89.416C105.706 86.984 105.898 83.912 107.946 81.736C109.098 80.52 110.57 79.816 112.554 79.816C114.154 79.816 115.498 80.2 116.714 80.84L117.226 72.2C116.202 71.88 115.37 71.752 114.218 71.752C112.426 71.752 110.826 72.008 109.29 72.968C107.818 73.864 106.538 75.336 105.706 76.936V72.456H96.4903V101ZM128.371 82.824C128.627 81.544 129.267 80.52 129.971 79.752C130.867 78.856 132.275 77.896 134.643 77.896C136.499 77.896 137.971 78.536 138.995 79.496C140.339 80.776 140.787 82.568 140.851 82.824H128.371ZM149.363 87.368C149.363 83.848 148.723 79.368 145.331 75.784C141.811 72.072 137.203 71.496 134.003 71.496C130.803 71.496 126.515 72.136 123.059 75.592C120.179 78.536 118.707 82.76 118.707 86.856C118.707 91.592 120.499 95.368 122.995 97.864C126.323 101.192 130.099 101.96 134.387 101.96C137.587 101.96 140.659 101.512 143.411 99.848C145.075 98.824 147.635 96.712 148.915 92.68L140.211 91.784C139.443 93.384 138.355 94.088 138.227 94.152C137.267 94.728 135.859 94.984 134.515 94.984C133.107 94.984 131.187 94.728 129.779 93.192C128.627 91.912 128.051 89.864 128.051 88.328H149.363V87.368Z" fill="white"/>
<defs>
<filter id="filter0_d" x="0" y="0" width="178" height="141" filterUnits="userSpaceOnUse" color-interpolation-filters="sRGB">
<feFlood flood-opacity="0" result="BackgroundImageFix"/>
<feColorMatrix in="SourceAlpha" type="matrix" values="0 0 0 0 0 0 0 0 0 0 0 0 0 0 0 0 0 0 127 0"/>
<feOffset dy="4"/>
<feGaussianBlur stdDeviation="8"/>
<feColorMatrix type="matrix" values="0 0 0 0 0.4 0 0 0 0 0.8 0 0 0 0 0 0 0 0 0.5 0"/>
<feBlend mode="normal" in2="BackgroundImageFix" result="effect1_dropShadow"/>
<feBlend mode="normal" in="SourceGraphic" in2="effect1_dropShadow" result="shape"/>
</filter>
</defs>
</svg>
