<svg width="210" height="173" viewBox="0 0 210 173" fill="none" xmlns="http://www.w3.org/2000/svg">
<g filter="url(#filter0_d)">
<rect x="32" y="24" width="146" height="109" fill="#CC0066"/>
</g>
<path d="M41.84 113H51.056V98.728C51.056 97.32 51.12 94.568 52.976 92.776C53.488 92.264 54.64 91.368 56.624 91.368C57.968 91.368 59.376 91.816 60.208 92.648C61.68 94.056 61.744 96.36 61.744 98.344V113H70.96V94.888C70.96 92.712 70.768 89.192 68.144 86.568C65.648 84.008 62.32 83.688 60.08 83.688C58.032 83.688 56.432 83.88 54.512 84.904C53.424 85.48 52.208 86.44 51.056 87.848V66.344H41.84V113ZM78.7865 84.456V127.656H88.0025V84.456H78.7865ZM78.0185 72.296C78.0185 75.304 80.3865 77.672 83.3945 77.672C86.4025 77.672 88.7705 75.304 88.7705 72.296C88.7705 69.288 86.4025 66.92 83.3945 66.92C80.3865 66.92 78.0185 69.288 78.0185 72.296ZM104.09 94.824C104.346 93.544 104.986 92.52 105.69 91.752C106.586 90.856 107.994 89.896 110.362 89.896C112.218 89.896 113.69 90.536 114.714 91.496C116.058 92.776 116.506 94.568 116.57 94.824H104.09ZM125.082 99.368C125.082 95.848 124.442 91.368 121.05 87.784C117.53 84.072 112.922 83.496 109.722 83.496C106.522 83.496 102.234 84.136 98.778 87.592C95.898 90.536 94.426 94.76 94.426 98.856C94.426 103.592 96.218 107.368 98.714 109.864C102.042 113.192 105.818 113.96 110.106 113.96C113.306 113.96 116.378 113.512 119.13 111.848C120.794 110.824 123.354 108.712 124.634 104.68L115.93 103.784C115.162 105.384 114.074 106.088 113.946 106.152C112.986 106.728 111.578 106.984 110.234 106.984C108.826 106.984 106.906 106.728 105.498 105.192C104.346 103.912 103.77 101.864 103.77 100.328H125.082V99.368ZM130.834 113H140.05V101.416C140.05 98.984 140.242 95.912 142.29 93.736C143.442 92.52 144.914 91.816 146.898 91.816C148.498 91.816 149.842 92.2 151.058 92.84L151.57 84.2C150.546 83.88 149.714 83.752 148.562 83.752C146.77 83.752 145.17 84.008 143.634 84.968C142.162 85.864 140.882 87.336 140.05 88.936V84.456H130.834V113ZM172.627 91.88V84.456H166.931V75.24H157.715V84.456H154.515V91.88H157.715V113H166.931V91.88H172.627Z" fill="white"/>
<defs>
<filter id="filter0_d" x="0" y="0" width="210" height="173" filterUnits="userSpaceOnUse" color-interpolation-filters="sRGB">
<feFlood flood-opacity="0" result="BackgroundImageFix"/>
<feColorMatrix in="SourceAlpha" type="matrix" values="0 0 0 0 0 0 0 0 0 0 0 0 0 0 0 0 0 0 127 0"/>
<feOffset dy="8"/>
<feGaussianBlur stdDeviation="16"/>
<feColorMatrix type="matrix" values="0 0 0 0 0.8 0 0 0 0 0 0 0 0 0 0.4 0 0 0 0.5 0"/>
<feBlend mode="normal" in2="BackgroundImageFix" result="effect1_dropShadow"/>
<feBlend mode="normal" in="SourceGraphic" in2="effect1_dropShadow" result="shape"/>
</filter>
</defs>
</svg>
