<svg width="769" height="211" viewBox="0 0 769 211" fill="none" xmlns="http://www.w3.org/2000/svg">
<g filter="url(#filter0_d)">
<rect x="32" y="52" width="146" height="109" fill="#66CC00"/>
</g>
<path d="M68.4928 113.096C66.0608 111.944 63.7568 111.496 61.2608 111.496C57.3568 111.496 53.5808 112.52 50.3808 115.528C47.6927 118.088 45.6448 121.928 45.6448 126.792C45.6448 131.976 47.9488 135.56 50.1248 137.672C52.7488 140.232 56.3968 141.96 61.1968 141.96C63.7568 141.96 66.0608 141.576 68.4928 140.232V131.912C66.3808 133.704 64.2048 134.152 62.6048 134.152C60.5568 134.152 58.4448 133.384 57.0368 131.848C55.8848 130.632 55.1168 128.84 55.1168 126.728C55.1168 124.424 56.0128 122.568 57.2288 121.352C57.8688 120.712 59.5968 119.304 62.4768 119.304C63.9488 119.304 66.2528 119.624 68.4928 121.48V113.096ZM106.743 126.728C106.743 123.08 105.335 118.984 102.455 116.104C99.8953 113.544 95.5433 111.496 89.9753 111.496C84.4073 111.496 80.0553 113.544 77.4953 116.104C74.6153 118.984 73.2073 123.08 73.2073 126.728C73.2073 130.376 74.6153 134.472 77.4953 137.352C80.0553 139.912 84.4073 141.96 89.9753 141.96C95.5433 141.96 99.8953 139.912 102.455 137.352C105.335 134.472 106.743 130.376 106.743 126.728ZM89.9753 119.304C92.0873 119.304 93.8153 120.008 95.1593 121.352C96.5033 122.696 97.2713 124.424 97.2713 126.728C97.2713 129.032 96.5033 130.76 95.1593 132.104C93.8153 133.448 92.0873 134.152 90.0393 134.152C87.6073 134.152 85.9433 133.256 84.7913 132.104C83.7033 131.016 82.6793 129.352 82.6793 126.728C82.6793 124.424 83.4473 122.696 84.7913 121.352C86.1353 120.008 87.8633 119.304 89.9753 119.304ZM112.49 141H121.706V129.416C121.706 126.984 121.898 123.912 123.946 121.736C125.098 120.52 126.57 119.816 128.554 119.816C130.154 119.816 131.498 120.2 132.714 120.84L133.226 112.2C132.202 111.88 131.37 111.752 130.218 111.752C128.426 111.752 126.826 112.008 125.29 112.968C123.818 113.864 122.538 115.336 121.706 116.936V112.456H112.49V141ZM144.371 122.824C144.627 121.544 145.267 120.52 145.971 119.752C146.867 118.856 148.275 117.896 150.643 117.896C152.499 117.896 153.971 118.536 154.995 119.496C156.339 120.776 156.787 122.568 156.851 122.824H144.371ZM165.363 127.368C165.363 123.848 164.723 119.368 161.331 115.784C157.811 112.072 153.203 111.496 150.003 111.496C146.803 111.496 142.515 112.136 139.059 115.592C136.179 118.536 134.707 122.76 134.707 126.856C134.707 131.592 136.499 135.368 138.995 137.864C142.323 141.192 146.099 141.96 150.387 141.96C153.587 141.96 156.659 141.512 159.411 139.848C161.075 138.824 163.635 136.712 164.915 132.68L156.211 131.784C155.443 133.384 154.355 134.088 154.227 134.152C153.267 134.728 151.859 134.984 150.515 134.984C149.107 134.984 147.187 134.728 145.779 133.192C144.627 131.912 144.051 129.864 144.051 128.328H165.363V127.368Z" fill="white"/>
<path d="M294.468 51.612H269.212V115.736C269.212 120.492 268.884 128.528 263.472 134.104C259.044 138.86 252.976 139.844 248.22 139.844C243.464 139.844 237.396 138.86 232.968 134.104C227.556 128.528 227.228 120.492 227.228 115.736V51.612H201.972V116.392C201.972 126.888 203.284 139.844 214.108 150.996C224.604 161.82 236.74 163.46 248.22 163.46C259.7 163.46 271.836 161.82 282.332 150.996C293.156 139.844 294.468 126.888 294.468 116.392V51.612ZM380.562 72.932V51.612H307.746V72.932H331.526V161H356.782V72.932H380.562ZM394.331 51.612V161H419.587V51.612H394.331ZM443.968 51.612V161H503.172V139.68H469.224V51.612H443.968ZM585.212 59.976C572.42 50.464 560.284 49.152 552.74 49.152C542.572 49.152 533.388 51.284 525.68 59.156C519.12 65.88 516.168 74.08 516.168 83.756C516.168 89.004 516.988 96.712 522.728 102.78C526.992 107.372 532.896 109.668 537.98 111.472L547 114.588C550.116 115.736 556.84 118.196 559.792 120.656C562.088 122.624 563.564 124.92 563.564 128.528C563.564 132.628 561.76 135.58 559.628 137.384C556.02 140.5 551.428 141.156 548.148 141.156C543.064 141.156 538.636 139.844 534.372 137.22C531.42 135.416 526.992 131.644 524.204 128.856L511.084 146.896C515.184 150.996 521.58 156.08 527.156 158.868C534.044 162.312 540.932 163.46 548.804 163.46C556.02 163.46 570.124 162.476 579.8 152.308C585.54 146.404 589.476 136.564 589.476 125.248C589.476 118.852 587.836 110.98 581.44 104.912C577.176 100.812 571.272 98.352 566.516 96.548L558.316 93.432C550.936 90.644 547.164 89.66 544.54 87.2C542.9 85.724 542.08 83.756 542.08 81.132C542.08 78.344 543.228 75.884 544.868 74.244C547.82 70.964 552.084 70.472 555.528 70.472C558.644 70.472 565.696 70.964 573.896 78.344L585.212 59.976Z" fill="white"/>
<defs>
<filter id="filter0_d" x="0" y="28" width="210" height="173" filterUnits="userSpaceOnUse" color-interpolation-filters="sRGB">
<feFlood flood-opacity="0" result="BackgroundImageFix"/>
<feColorMatrix in="SourceAlpha" type="matrix" values="0 0 0 0 0 0 0 0 0 0 0 0 0 0 0 0 0 0 127 0"/>
<feOffset dy="8"/>
<feGaussianBlur stdDeviation="16"/>
<feColorMatrix type="matrix" values="0 0 0 0 0.4 0 0 0 0 0.8 0 0 0 0 0 0 0 0 0.5 0"/>
<feBlend mode="normal" in2="BackgroundImageFix" result="effect1_dropShadow"/>
<feBlend mode="normal" in="SourceGraphic" in2="effect1_dropShadow" result="shape"/>
</filter>
</defs>
</svg>
