<svg width="753" height="211" viewBox="0 0 753 211" fill="none" xmlns="http://www.w3.org/2000/svg">
<g filter="url(#filter0_d)">
<rect x="16" y="52" width="146" height="109" fill="#0066CC"/>
</g>
<path d="M51.8603 113.928C49.5563 112.584 46.6123 111.496 42.3883 111.496C39.7643 111.496 36.3083 112.008 33.7483 114.376C32.0843 115.912 30.9963 118.216 30.9963 120.968C30.9963 123.144 31.7003 124.744 33.0443 126.152C34.2603 127.368 35.9883 128.264 37.6523 128.776L39.9563 129.48C41.3003 129.864 42.1323 130.12 42.7723 130.504C43.6042 131.016 43.7963 131.656 43.7963 132.168C43.7963 132.872 43.4123 133.576 42.8363 134.024C42.0043 134.664 40.5323 134.664 39.9563 134.664C38.7403 134.664 37.3963 134.408 36.1163 133.768C35.1562 133.32 33.8763 132.424 32.9803 131.656L29.0763 137.864C32.7883 141.128 36.9483 141.96 40.7883 141.96C43.7963 141.96 47.2523 141.512 50.0683 138.696C51.3483 137.416 53.0123 134.984 53.0123 131.208C53.0123 129.032 52.4363 127.304 50.7723 125.768C49.3003 124.424 47.6363 123.784 46.0363 123.272L43.6042 122.504C42.4523 122.12 41.4923 121.928 40.8523 121.544C40.4043 121.288 39.9563 120.904 39.9563 120.264C39.9563 119.816 40.2123 119.304 40.5323 118.984C41.1083 118.408 42.1963 118.152 43.1562 118.152C44.9483 118.152 46.8043 118.92 48.2123 119.752L51.8603 113.928ZM58.7463 94.344V141H67.9623V128.712L78.9703 141H91.3863L76.8583 125.384L90.4263 112.456H78.3303L67.9623 122.952V94.344H58.7463ZM95.3802 112.456V141H104.596V112.456H95.3802ZM94.6123 100.296C94.6123 103.304 96.9803 105.672 99.9883 105.672C102.996 105.672 105.364 103.304 105.364 100.296C105.364 97.288 102.996 94.92 99.9883 94.92C96.9803 94.92 94.6123 97.288 94.6123 100.296ZM129.708 119.88V112.456H122.412V107.656C122.412 106.312 122.412 104.072 123.436 102.728C123.82 102.216 124.716 101.576 126.124 101.576C127.276 101.576 128.62 102.024 129.644 102.664V94.6C128.108 94.024 126.444 93.64 124.396 93.64C120.876 93.64 118.252 94.92 116.396 96.904C113.516 99.976 113.196 103.624 113.196 106.824V112.456H109.868V119.88H113.196V141H122.412V119.88H129.708ZM150.471 119.88V112.456H144.775V103.24H135.559V112.456H132.359V119.88H135.559V141H144.775V119.88H150.471Z" fill="white"/>
<path d="M240.584 49.152C218.772 49.152 205.16 57.844 197.78 65.224C187.94 75.064 180.888 90.972 180.888 106.716C180.888 122.788 187.448 137.548 197.944 147.388C206.144 155.26 220.084 163.46 240.584 163.46C258.952 163.46 272.728 157.228 282.896 147.388C294.704 135.908 299.952 120.984 299.952 106.388C299.952 89.496 293.228 75.064 282.896 65.06C271.908 54.4 257.64 49.152 240.584 49.152ZM240.42 72.44C250.424 72.44 259.116 76.54 264.528 81.788C269.448 86.708 274.04 95.072 274.04 106.388C274.04 119.016 268.792 126.724 264.528 130.824C259.28 136.072 251.408 140.172 240.256 140.172C231.728 140.172 223.856 137.876 216.804 131.152C210.08 124.592 206.8 116.556 206.8 106.552C206.8 94.416 211.72 86.38 216.476 81.788C222.38 75.884 230.908 72.44 240.42 72.44ZM386.474 59.976C373.682 50.464 361.546 49.152 354.002 49.152C343.834 49.152 334.65 51.284 326.942 59.156C320.382 65.88 317.43 74.08 317.43 83.756C317.43 89.004 318.25 96.712 323.99 102.78C328.254 107.372 334.158 109.668 339.242 111.472L348.262 114.588C351.378 115.736 358.102 118.196 361.054 120.656C363.35 122.624 364.826 124.92 364.826 128.528C364.826 132.628 363.022 135.58 360.89 137.384C357.282 140.5 352.69 141.156 349.41 141.156C344.326 141.156 339.898 139.844 335.634 137.22C332.682 135.416 328.254 131.644 325.466 128.856L312.346 146.896C316.446 150.996 322.842 156.08 328.418 158.868C335.306 162.312 342.194 163.46 350.066 163.46C357.282 163.46 371.386 162.476 381.062 152.308C386.802 146.404 390.738 136.564 390.738 125.248C390.738 118.852 389.098 110.98 382.702 104.912C378.438 100.812 372.534 98.352 367.778 96.548L359.578 93.432C352.198 90.644 348.426 89.66 345.802 87.2C344.162 85.724 343.342 83.756 343.342 81.132C343.342 78.344 344.49 75.884 346.13 74.244C349.082 70.964 353.346 70.472 356.79 70.472C359.906 70.472 366.958 70.964 375.158 78.344L386.474 59.976Z" fill="white"/>
<defs>
<filter id="filter0_d" x="0" y="40" width="178" height="141" filterUnits="userSpaceOnUse" color-interpolation-filters="sRGB">
<feFlood flood-opacity="0" result="BackgroundImageFix"/>
<feColorMatrix in="SourceAlpha" type="matrix" values="0 0 0 0 0 0 0 0 0 0 0 0 0 0 0 0 0 0 127 0"/>
<feOffset dy="4"/>
<feGaussianBlur stdDeviation="8"/>
<feColorMatrix type="matrix" values="0 0 0 0 0 0 0 0 0 0.4 0 0 0 0 0.8 0 0 0 0.5 0"/>
<feBlend mode="normal" in2="BackgroundImageFix" result="effect1_dropShadow"/>
<feBlend mode="normal" in="SourceGraphic" in2="effect1_dropShadow" result="shape"/>
</filter>
</defs>
</svg>
