<svg width="753" height="211" viewBox="0 0 753 211" fill="none" xmlns="http://www.w3.org/2000/svg">
<g filter="url(#filter0_d)">
<rect x="16" y="52" width="146" height="109" fill="#66CC00"/>
</g>
<path d="M52.4928 113.096C50.0608 111.944 47.7568 111.496 45.2608 111.496C41.3568 111.496 37.5808 112.52 34.3808 115.528C31.6927 118.088 29.6448 121.928 29.6448 126.792C29.6448 131.976 31.9488 135.56 34.1248 137.672C36.7488 140.232 40.3968 141.96 45.1968 141.96C47.7568 141.96 50.0608 141.576 52.4928 140.232V131.912C50.3808 133.704 48.2048 134.152 46.6048 134.152C44.5568 134.152 42.4448 133.384 41.0368 131.848C39.8848 130.632 39.1168 128.84 39.1168 126.728C39.1168 124.424 40.0128 122.568 41.2288 121.352C41.8688 120.712 43.5968 119.304 46.4768 119.304C47.9488 119.304 50.2528 119.624 52.4928 121.48V113.096ZM90.7433 126.728C90.7433 123.08 89.3353 118.984 86.4553 116.104C83.8953 113.544 79.5433 111.496 73.9753 111.496C68.4073 111.496 64.0553 113.544 61.4953 116.104C58.6153 118.984 57.2073 123.08 57.2073 126.728C57.2073 130.376 58.6153 134.472 61.4953 137.352C64.0553 139.912 68.4073 141.96 73.9753 141.96C79.5433 141.96 83.8953 139.912 86.4553 137.352C89.3353 134.472 90.7433 130.376 90.7433 126.728ZM73.9753 119.304C76.0873 119.304 77.8153 120.008 79.1593 121.352C80.5033 122.696 81.2713 124.424 81.2713 126.728C81.2713 129.032 80.5033 130.76 79.1593 132.104C77.8153 133.448 76.0873 134.152 74.0393 134.152C71.6073 134.152 69.9433 133.256 68.7913 132.104C67.7033 131.016 66.6793 129.352 66.6793 126.728C66.6793 124.424 67.4473 122.696 68.7913 121.352C70.1353 120.008 71.8633 119.304 73.9753 119.304ZM96.4903 141H105.706V129.416C105.706 126.984 105.898 123.912 107.946 121.736C109.098 120.52 110.57 119.816 112.554 119.816C114.154 119.816 115.498 120.2 116.714 120.84L117.226 112.2C116.202 111.88 115.37 111.752 114.218 111.752C112.426 111.752 110.826 112.008 109.29 112.968C107.818 113.864 106.538 115.336 105.706 116.936V112.456H96.4903V141ZM128.371 122.824C128.627 121.544 129.267 120.52 129.971 119.752C130.867 118.856 132.275 117.896 134.643 117.896C136.499 117.896 137.971 118.536 138.995 119.496C140.339 120.776 140.787 122.568 140.851 122.824H128.371ZM149.363 127.368C149.363 123.848 148.723 119.368 145.331 115.784C141.811 112.072 137.203 111.496 134.003 111.496C130.803 111.496 126.515 112.136 123.059 115.592C120.179 118.536 118.707 122.76 118.707 126.856C118.707 131.592 120.499 135.368 122.995 137.864C126.323 141.192 130.099 141.96 134.387 141.96C137.587 141.96 140.659 141.512 143.411 139.848C145.075 138.824 147.635 136.712 148.915 132.68L140.211 131.784C139.443 133.384 138.355 134.088 138.227 134.152C137.267 134.728 135.859 134.984 134.515 134.984C133.107 134.984 131.187 134.728 129.779 133.192C128.627 131.912 128.051 129.864 128.051 128.328H149.363V127.368Z" fill="white"/>
<path d="M278.468 51.612H253.212V115.736C253.212 120.492 252.884 128.528 247.472 134.104C243.044 138.86 236.976 139.844 232.22 139.844C227.464 139.844 221.396 138.86 216.968 134.104C211.556 128.528 211.228 120.492 211.228 115.736V51.612H185.972V116.392C185.972 126.888 187.284 139.844 198.108 150.996C208.604 161.82 220.74 163.46 232.22 163.46C243.7 163.46 255.836 161.82 266.332 150.996C277.156 139.844 278.468 126.888 278.468 116.392V51.612ZM364.562 72.932V51.612H291.746V72.932H315.526V161H340.782V72.932H364.562ZM378.331 51.612V161H403.587V51.612H378.331ZM427.968 51.612V161H487.172V139.68H453.224V51.612H427.968ZM569.212 59.976C556.42 50.464 544.284 49.152 536.74 49.152C526.572 49.152 517.388 51.284 509.68 59.156C503.12 65.88 500.168 74.08 500.168 83.756C500.168 89.004 500.988 96.712 506.728 102.78C510.992 107.372 516.896 109.668 521.98 111.472L531 114.588C534.116 115.736 540.84 118.196 543.792 120.656C546.088 122.624 547.564 124.92 547.564 128.528C547.564 132.628 545.76 135.58 543.628 137.384C540.02 140.5 535.428 141.156 532.148 141.156C527.064 141.156 522.636 139.844 518.372 137.22C515.42 135.416 510.992 131.644 508.204 128.856L495.084 146.896C499.184 150.996 505.58 156.08 511.156 158.868C518.044 162.312 524.932 163.46 532.804 163.46C540.02 163.46 554.124 162.476 563.8 152.308C569.54 146.404 573.476 136.564 573.476 125.248C573.476 118.852 571.836 110.98 565.44 104.912C561.176 100.812 555.272 98.352 550.516 96.548L542.316 93.432C534.936 90.644 531.164 89.66 528.54 87.2C526.9 85.724 526.08 83.756 526.08 81.132C526.08 78.344 527.228 75.884 528.868 74.244C531.82 70.964 536.084 70.472 539.528 70.472C542.644 70.472 549.696 70.964 557.896 78.344L569.212 59.976Z" fill="black"/>
<defs>
<filter id="filter0_d" x="0" y="40" width="178" height="141" filterUnits="userSpaceOnUse" color-interpolation-filters="sRGB">
<feFlood flood-opacity="0" result="BackgroundImageFix"/>
<feColorMatrix in="SourceAlpha" type="matrix" values="0 0 0 0 0 0 0 0 0 0 0 0 0 0 0 0 0 0 127 0"/>
<feOffset dy="4"/>
<feGaussianBlur stdDeviation="8"/>
<feColorMatrix type="matrix" values="0 0 0 0 0.4 0 0 0 0 0.8 0 0 0 0 0 0 0 0 0.5 0"/>
<feBlend mode="normal" in2="BackgroundImageFix" result="effect1_dropShadow"/>
<feBlend mode="normal" in="SourceGraphic" in2="effect1_dropShadow" result="shape"/>
</filter>
</defs>
</svg>
