<svg width="769" height="211" viewBox="0 0 769 211" fill="none" xmlns="http://www.w3.org/2000/svg">
<g filter="url(#filter0_d)">
<rect x="32" y="52" width="146" height="109" fill="#CC0066"/>
</g>
<path d="M41.84 141H51.056V126.728C51.056 125.32 51.12 122.568 52.976 120.776C53.488 120.264 54.64 119.368 56.624 119.368C57.968 119.368 59.376 119.816 60.208 120.648C61.68 122.056 61.744 124.36 61.744 126.344V141H70.96V122.888C70.96 120.712 70.768 117.192 68.144 114.568C65.648 112.008 62.32 111.688 60.08 111.688C58.032 111.688 56.432 111.88 54.512 112.904C53.424 113.48 52.208 114.44 51.056 115.848V94.344H41.84V141ZM78.7865 112.456V155.656H88.0025V112.456H78.7865ZM78.0185 100.296C78.0185 103.304 80.3865 105.672 83.3945 105.672C86.4025 105.672 88.7705 103.304 88.7705 100.296C88.7705 97.288 86.4025 94.92 83.3945 94.92C80.3865 94.92 78.0185 97.288 78.0185 100.296ZM104.09 122.824C104.346 121.544 104.986 120.52 105.69 119.752C106.586 118.856 107.994 117.896 110.362 117.896C112.218 117.896 113.69 118.536 114.714 119.496C116.058 120.776 116.506 122.568 116.57 122.824H104.09ZM125.082 127.368C125.082 123.848 124.442 119.368 121.05 115.784C117.53 112.072 112.922 111.496 109.722 111.496C106.522 111.496 102.234 112.136 98.778 115.592C95.898 118.536 94.426 122.76 94.426 126.856C94.426 131.592 96.218 135.368 98.714 137.864C102.042 141.192 105.818 141.96 110.106 141.96C113.306 141.96 116.378 141.512 119.13 139.848C120.794 138.824 123.354 136.712 124.634 132.68L115.93 131.784C115.162 133.384 114.074 134.088 113.946 134.152C112.986 134.728 111.578 134.984 110.234 134.984C108.826 134.984 106.906 134.728 105.498 133.192C104.346 131.912 103.77 129.864 103.77 128.328H125.082V127.368ZM130.834 141H140.05V129.416C140.05 126.984 140.242 123.912 142.29 121.736C143.442 120.52 144.914 119.816 146.898 119.816C148.498 119.816 149.842 120.2 151.058 120.84L151.57 112.2C150.546 111.88 149.714 111.752 148.562 111.752C146.77 111.752 145.17 112.008 143.634 112.968C142.162 113.864 140.882 115.336 140.05 116.936V112.456H130.834V141ZM172.627 119.88V112.456H166.931V103.24H157.715V112.456H154.515V119.88H157.715V141H166.931V119.88H172.627Z" fill="white"/>
<path d="M227.228 51.612H201.972V161H227.228V112.456L266.424 161H298.896L251.172 103.436L295.452 51.612H264.62L227.228 97.204V51.612ZM373.667 51.612H311.839V161H373.667V139.68H337.095V115.408H371.863V94.088H337.095V72.932H373.667V51.612ZM394.16 51.612V161H419.416V117.868L448.936 161H479.768L446.148 116.228C452.216 114.752 457.628 111.472 461.4 107.864C468.452 100.976 469.928 92.448 469.928 85.56C469.928 73.424 465.007 65.552 460.416 61.124C455.168 56.204 446.476 51.612 432.536 51.612H394.16ZM419.416 71.292H425.32C428.6 71.292 435.16 71.62 439.26 74.736C441.392 76.376 444.344 79.656 444.344 85.888C444.344 91.3 442.048 94.744 440.244 96.548C435.98 100.812 429.748 101.304 425.156 101.304H419.416V71.292ZM519.033 161V90.152L578.401 161H600.377V51.612H575.121V122.132L515.753 51.612H493.777V161H519.033ZM686.132 51.612H624.304V161H686.132V139.68H649.56V115.408H684.328V94.088H649.56V72.932H686.132V51.612ZM706.624 51.612V161H765.828V139.68H731.88V51.612H706.624Z" fill="white"/>
<defs>
<filter id="filter0_d" x="0" y="28" width="210" height="173" filterUnits="userSpaceOnUse" color-interpolation-filters="sRGB">
<feFlood flood-opacity="0" result="BackgroundImageFix"/>
<feColorMatrix in="SourceAlpha" type="matrix" values="0 0 0 0 0 0 0 0 0 0 0 0 0 0 0 0 0 0 127 0"/>
<feOffset dy="8"/>
<feGaussianBlur stdDeviation="16"/>
<feColorMatrix type="matrix" values="0 0 0 0 0.8 0 0 0 0 0 0 0 0 0 0.4 0 0 0 0.5 0"/>
<feBlend mode="normal" in2="BackgroundImageFix" result="effect1_dropShadow"/>
<feBlend mode="normal" in="SourceGraphic" in2="effect1_dropShadow" result="shape"/>
</filter>
</defs>
</svg>
